<?xml version="1.0" encoding="UTF-8" standalone="no"?>
<svg
   xmlns:dc="http://purl.org/dc/elements/1.1/"
   xmlns:cc="http://creativecommons.org/ns#"
   xmlns:rdf="http://www.w3.org/1999/02/22-rdf-syntax-ns#"
   xmlns:svg="http://www.w3.org/2000/svg"
   xmlns="http://www.w3.org/2000/svg"
   xmlns:xlink="http://www.w3.org/1999/xlink"
   xmlns:sodipodi="http://sodipodi.sourceforge.net/DTD/sodipodi-0.dtd"
   xmlns:inkscape="http://www.inkscape.org/namespaces/inkscape"
   width="1920"
   height="1080"
   viewBox="0 0 507.99999 285.75001"
   version="1.1"
   id="svg2205"
   inkscape:version="1.0.1 (3bc2e813f5, 2020-09-07)"
   sodipodi:docname="Backyard night.svg"
   inkscape:export-filename="D:\Program Files (x86)\Unity\Projects\PVZ\Assets\Sprites\Level 2-1.png"
   inkscape:export-xdpi="96"
   inkscape:export-ydpi="96">
  <defs
     id="defs2199">
    <linearGradient
       inkscape:collect="always"
       id="linearGradient3551">
      <stop
         style="stop-color:#f3e63a;stop-opacity:0.78709677"
         offset="0"
         id="stop3547" />
      <stop
         style="stop-color:#f3e63a;stop-opacity:0"
         offset="1"
         id="stop3549" />
    </linearGradient>
    <linearGradient
       inkscape:collect="always"
       id="linearGradient3537">
      <stop
         style="stop-color:#f3e63a;stop-opacity:1"
         offset="0"
         id="stop3533" />
      <stop
         style="stop-color:#f3e69b;stop-opacity:0.87843138"
         offset="1"
         id="stop3535" />
    </linearGradient>
    <linearGradient
       inkscape:collect="always"
       id="linearGradient3529">
      <stop
         style="stop-color:#faf611;stop-opacity:1;"
         offset="0"
         id="stop3525" />
      <stop
         style="stop-color:#fefb7f;stop-opacity:1"
         offset="1"
         id="stop3527" />
    </linearGradient>
    <linearGradient
       inkscape:collect="always"
       id="linearGradient2888">
      <stop
         style="stop-color:#3d4959;stop-opacity:1"
         offset="0"
         id="stop2884" />
      <stop
         style="stop-color:#3d4557;stop-opacity:1"
         offset="1"
         id="stop2886" />
    </linearGradient>
    <radialGradient
       inkscape:collect="always"
       xlink:href="#linearGradient2888"
       id="radialGradient2890"
       cx="239.05113"
       cy="23.007271"
       fx="239.05113"
       fy="23.007271"
       r="296.84988"
       gradientTransform="matrix(0.8869973,0,0,0.09451796,50.013652,25.883045)"
       gradientUnits="userSpaceOnUse" />
    <radialGradient
       inkscape:collect="always"
       xlink:href="#linearGradient3529"
       id="radialGradient3531"
       cx="668.34833"
       cy="210.25793"
       fx="668.34833"
       fy="210.25793"
       r="2.2154801"
       gradientTransform="matrix(1,0,0,1.048,19.496225,-9.0289491)"
       gradientUnits="userSpaceOnUse" />
    <radialGradient
       inkscape:collect="always"
       xlink:href="#linearGradient3537"
       id="radialGradient3539"
       cx="667.99384"
       cy="210.26949"
       fx="667.99384"
       fy="210.26949"
       r="7.35539"
       gradientTransform="matrix(0.99518692,-0.01927693,0.02023706,1.0447541,18.597878,4.3880938)"
       gradientUnits="userSpaceOnUse" />
    <radialGradient
       inkscape:collect="always"
       xlink:href="#linearGradient3551"
       id="radialGradient3553"
       cx="686.58612"
       cy="210.382"
       fx="686.58612"
       fy="210.382"
       r="6.8059554"
       gradientUnits="userSpaceOnUse"
       gradientTransform="matrix(1.062502,0,0,1,-41.800409,1.1589187)" />
    <radialGradient
       inkscape:collect="always"
       xlink:href="#linearGradient3529"
       id="radialGradient3560"
       gradientUnits="userSpaceOnUse"
       gradientTransform="matrix(1,0,0,1.048,19.496225,-9.0289491)"
       cx="668.34833"
       cy="210.25793"
       fx="668.34833"
       fy="210.25793"
       r="2.2154801" />
    <radialGradient
       inkscape:collect="always"
       xlink:href="#linearGradient3537"
       id="radialGradient3567"
       gradientUnits="userSpaceOnUse"
       gradientTransform="matrix(0.99518692,-0.01927693,0.02023706,1.0447541,18.597878,4.3880938)"
       cx="667.99384"
       cy="210.26949"
       fx="667.99384"
       fy="210.26949"
       r="7.35539" />
    <radialGradient
       inkscape:collect="always"
       xlink:href="#linearGradient3551"
       id="radialGradient3581"
       gradientUnits="userSpaceOnUse"
       gradientTransform="matrix(1.062502,0,0,1,-41.800409,1.1589187)"
       cx="686.58612"
       cy="210.382"
       fx="686.58612"
       fy="210.382"
       r="6.8059554" />
    <radialGradient
       inkscape:collect="always"
       xlink:href="#linearGradient3537"
       id="radialGradient3583"
       gradientUnits="userSpaceOnUse"
       gradientTransform="matrix(0.99518692,-0.01927693,0.02023706,1.0447541,18.597878,4.3880938)"
       cx="667.99384"
       cy="210.26949"
       fx="667.99384"
       fy="210.26949"
       r="7.35539" />
    <radialGradient
       inkscape:collect="always"
       xlink:href="#linearGradient3529"
       id="radialGradient3585"
       gradientUnits="userSpaceOnUse"
       gradientTransform="matrix(1,0,0,1.048,19.496225,-9.0289491)"
       cx="668.34833"
       cy="210.25793"
       fx="668.34833"
       fy="210.25793"
       r="2.2154801" />
    <radialGradient
       inkscape:collect="always"
       xlink:href="#linearGradient3551"
       id="radialGradient3650"
       gradientUnits="userSpaceOnUse"
       gradientTransform="matrix(1.062502,0,0,1,-41.800409,1.1589187)"
       cx="686.58612"
       cy="210.382"
       fx="686.58612"
       fy="210.382"
       r="6.8059554" />
    <radialGradient
       inkscape:collect="always"
       xlink:href="#linearGradient3537"
       id="radialGradient3652"
       gradientUnits="userSpaceOnUse"
       gradientTransform="matrix(0.99518692,-0.01927693,0.02023706,1.0447541,18.597878,4.3880938)"
       cx="667.99384"
       cy="210.26949"
       fx="667.99384"
       fy="210.26949"
       r="7.35539" />
    <radialGradient
       inkscape:collect="always"
       xlink:href="#linearGradient3529"
       id="radialGradient3654"
       gradientUnits="userSpaceOnUse"
       gradientTransform="matrix(1,0,0,1.048,19.496225,-9.0289491)"
       cx="668.34833"
       cy="210.25793"
       fx="668.34833"
       fy="210.25793"
       r="2.2154801" />
  </defs>
  <sodipodi:namedview
     id="base"
     pagecolor="#ffffff"
     bordercolor="#666666"
     borderopacity="1.0"
     inkscape:pageopacity="0.0"
     inkscape:pageshadow="2"
     inkscape:zoom="0.32986759"
     inkscape:cx="760.571"
     inkscape:cy="508.05463"
     inkscape:document-units="px"
     inkscape:current-layer="layer1"
     inkscape:document-rotation="0"
     showgrid="false"
     units="px"
     inkscape:snap-global="false"
     inkscape:window-width="1920"
     inkscape:window-height="1017"
     inkscape:window-x="-8"
     inkscape:window-y="-8"
     inkscape:window-maximized="1" />
  <metadata
     id="metadata2202">
    <rdf:RDF>
      <cc:Work
         rdf:about="">
        <dc:format>image/svg+xml</dc:format>
        <dc:type
           rdf:resource="http://purl.org/dc/dcmitype/StillImage" />
        <dc:title />
      </cc:Work>
    </rdf:RDF>
  </metadata>
  <g
     inkscape:label="Layer 1"
     inkscape:groupmode="layer"
     id="layer1">
    <rect
       style="opacity:1;fill:url(#radialGradient2890);fill-opacity:1;stroke:none;stroke-width:0.672002;stroke-miterlimit:4;stroke-dasharray:none;stroke-opacity:1"
       id="rect2882"
       width="526.61011"
       height="56.115295"
       x="-1.2536852"
       y="1.4210855e-14" />
    <path
       sodipodi:type="star"
       style="fill:#ffffff;fill-opacity:1;stroke:none;stroke-width:0.422841;stroke-miterlimit:4;stroke-dasharray:none;stroke-opacity:1"
       id="path1024-3"
       sodipodi:sides="5"
       sodipodi:cx="339.96518"
       sodipodi:cy="6.6768553"
       sodipodi:r1="4.3622584"
       sodipodi:r2="2.1811292"
       sodipodi:arg1="0.52359878"
       sodipodi:arg2="1.1519173"
       inkscape:flatsided="false"
       inkscape:rounded="0"
       inkscape:randomized="0"
       d="m 343.74301,8.8579843 -2.89069,-0.1885685 -1.79411,2.2743722 -0.71393,-2.8074726 -2.71746,-1.0034802 2.44945,-1.5465447 0.11462,-2.8945568 2.22777,1.8516551 2.78831,-0.7854543 -1.07261,2.6909305 z"
       inkscape:transform-center-x="2.0273893e-06"
       inkscape:transform-center-y="-1.0905655" />
    <path
       sodipodi:type="star"
       style="fill:#ffffff;fill-opacity:1;stroke:none;stroke-width:0.422841;stroke-miterlimit:4;stroke-dasharray:none;stroke-opacity:1"
       id="path1024-4"
       sodipodi:sides="5"
       sodipodi:cx="327.13174"
       sodipodi:cy="21.114467"
       sodipodi:r1="4.3622584"
       sodipodi:r2="2.1811292"
       sodipodi:arg1="0.52359878"
       sodipodi:arg2="1.1519173"
       inkscape:flatsided="false"
       inkscape:rounded="0"
       inkscape:randomized="0"
       d="m 330.90957,23.295597 -2.89068,-0.188569 -1.79411,2.274372 -0.71393,-2.807472 -2.71747,-1.00348 2.44945,-1.546545 0.11462,-2.894557 2.22778,1.851655 2.7883,-0.785454 -1.0726,2.690931 z"
       inkscape:transform-center-x="2.0273893e-06"
       inkscape:transform-center-y="-1.0905655" />
    <rect
       style="opacity:1;fill:#35281a;fill-opacity:1;stroke:none;stroke-width:1.35349;stroke-miterlimit:4;stroke-dasharray:none;stroke-opacity:1"
       id="rect2850"
       width="462.70483"
       height="245.05354"
       x="23.187593"
       y="34.685291" />
    <path
       id="path2980"
       style="opacity:1;fill:#004b38;fill-opacity:1;stroke:none;stroke-width:0.79375;stroke-miterlimit:4;stroke-dasharray:none;stroke-opacity:1"
       d="m 399.01652,2.0902705 a 15.433443,10.021716 0 0 0 -12.10159,3.8018351 24.252552,10.021716 0 0 0 -15.15771,-2.1983145 24.252552,10.021716 0 0 0 -24.2523,10.0216099 24.252552,10.021716 0 0 0 19.24431,9.805088 15.433443,10.021716 0 0 0 15.43058,9.837125 15.433443,10.021716 0 0 0 15.43371,-10.02161 15.433443,10.021716 0 0 0 -0.12094,-1.251604 15.433443,10.021716 0 0 0 1.52394,0.04909 A 15.433443,10.021716 0 0 0 414.4502,12.11188 15.433443,10.021716 0 0 0 399.01652,2.0902675 Z" />
    <path
       id="rect3019"
       style="opacity:1;fill:#004b38;fill-opacity:1;stroke:none;stroke-width:0.79375;stroke-miterlimit:4;stroke-dasharray:none;stroke-opacity:1"
       d="m 462.89121,1.1277891 a 13.028233,8.6186766 0 0 0 -10.52287,3.537251 13.028233,8.6186766 0 0 0 -9.52087,-2.735749 13.028233,8.6186766 0 0 0 -12.72376,6.768579 23.851685,10.021716 0 0 0 -12.73152,8.8656079 23.851685,10.021716 0 0 0 23.85177,10.021611 23.851685,10.021716 0 0 0 15.37891,-2.361096 13.028233,8.6186766 0 0 0 6.55103,1.884639 13.028233,8.6186766 0 0 0 11.74295,4.886007 13.028233,8.6186766 0 0 0 13.02866,-8.618596 13.028233,8.6186766 0 0 0 -0.10181,-1.072802 13.028233,8.6186766 0 0 0 5.31286,-6.944798 13.028233,8.6186766 0 0 0 -13.02816,-8.6185929 13.028233,8.6186766 0 0 0 -4.59508,0.553971 13.028233,8.6186766 0 0 0 -0.13745,0.03514 13.028233,8.6186766 0 0 0 -12.50466,-6.201172 z" />
    <g
       id="g1182"
       transform="translate(-0.56716293)">
      <path
         id="path3195"
         style="fill:#0d4d4d;fill-opacity:1;stroke:#092d24;stroke-width:1.32292;stroke-miterlimit:4;stroke-dasharray:none;stroke-opacity:1"
         d="m 23.159132,176.70167 v 36.11046 c 1.790751,1.01256 3.343982,1.90531 3.343982,1.90531 l 3.78995,11.19673 h 7.479128 c 3.688432,-2.32813 7.891026,-4.83152 9.148797,-4.97127 1.408361,-0.15649 4.204653,2.65732 6.248197,4.97127 h 35.428331 c 1.604716,-0.86334 3.35925,-1.54524 5.214151,-1.81022 2.843358,-0.4062 6.546982,0.52029 10.026262,1.81022 h 16.72404 l 2.22778,-1.81022 3.18017,1.81022 h 21.81572 c 0.64623,-0.5787 1.13889,-0.9675 1.3472,-1.01958 0.425,-0.10624 7.40855,0.3926 15.53756,1.01958 h 29.13103 l 2.74919,-2.33681 1.65571,2.33681 h 8.30234 c 1.85139,-1.31909 3.6175,-2.53894 4.26744,-2.86391 0.75134,-0.37567 1.50099,1.15599 2.08256,2.86391 h 4.89841 l 2.23914,-2.33681 c 0,0 0.47959,1.26256 0.88832,2.33681 h 7.97315 c 0.51651,-0.45475 0.93155,-0.75654 1.14929,-0.75654 0.60501,0 7.1697,0.38672 13.3444,0.75654 h 12.36824 c 4.26227,-0.7809 15.85772,-2.90634 16.96331,-3.12746 0.66759,-0.13352 4.64671,1.49124 8.41343,3.12746 h 20.32487 c 3.79597,-1.00961 7.34121,-2.06812 8.93278,-2.86391 2.48163,-1.24082 6.77979,0.89566 9.90328,2.86391 h 12.80284 c 3.74089,-1.07634 7.39296,-2.07377 8.11578,-2.07377 0.59089,0 2.65525,0.92108 5.07669,2.07377 h 25.12094 c 2.59652,-0.74481 4.74877,-1.28312 5.62912,-1.28312 0.90556,0 2.96854,0.54029 5.37744,1.28312 h 28.07322 c 1.10054,-0.26284 1.95612,-0.44633 2.37609,-0.49299 0.49477,-0.055 1.38195,0.15092 2.48306,0.49299 h 27.70683 c 3.49676,-1.20778 6.48099,-2.28464 7.21765,-2.60036 0.7112,-0.3048 3.35084,0.9643 6.45128,2.60036 h 16.63052 c 0.69588,-1.57918 1.15392,-2.86391 1.15392,-2.86391 l 10.64898,2.86391 v -9.84643 l -3.00913,-3.29127 3.00913,-2.00608 v -7.80004 l -0.90175,-1.52135 0.90175,-2.64687 v -20.71346 l -13.14236,1.10742 -1.46658,-2.49442 h -39.06584 c -0.71734,0.59737 -1.23092,1.03818 -1.23092,1.03818 l -5.73712,-1.03818 h -27.97812 l -1.58441,1.03818 c 0,0 -5.67785,-0.47728 -12.96408,-1.03818 h -36.21794 c -1.83131,1.23146 -4.69207,2.44911 -7.19283,2.09186 -1.57133,-0.22447 -2.56585,-1.11928 -3.27475,-2.09186 h -6.23062 c -0.62246,0.4151 -1.17949,0.66292 -1.55908,0.51108 -0.25347,-0.10139 -0.49694,-0.28176 -0.73277,-0.51108 h -5.40173 c -0.26905,0.59339 -0.45114,1.03818 -0.45114,1.03818 l -9.09971,-1.03818 h -37.35999 l -4.38319,2.09186 -4.7811,-2.09186 h -5.98157 l -2.67218,1.82831 c 0,0 -1.43647,-0.87222 -3.42201,-1.82831 h -11.85199 c -0.40367,0.73746 -0.68198,1.45145 -1.05885,1.82831 -0.34009,0.34009 -3.60309,-0.53302 -7.85637,-1.82831 h -25.88421 c -1.22836,2.21512 -2.34972,4.19923 -2.34972,4.19923 l -27.19008,-4.19923 h -51.73482 l -3.53002,2.09186 -16.62948,-2.09186 H 68.246819 l -10.525456,2.882 -14.410489,-2.882 h -9.994223 l -5.626529,4.46278 -2.953308,-4.46278 z" />
      <path
         id="rect3197"
         style="fill:#0a3949;fill-opacity:1;stroke:none;stroke-width:1.42182;stroke-miterlimit:4;stroke-dasharray:none;stroke-opacity:1"
         d="m 23.605529,176.92478 v 35.61895 c 1.774949,0.99878 3.314471,1.87938 3.314471,1.87938 l 3.756502,11.04433 h 7.41312 c 3.655879,-2.29644 7.821384,-4.76576 9.068054,-4.90361 1.395931,-0.15436 4.167543,2.62116 6.193052,4.90361 h 20.40619 v -48.54266 h -5.461627 l -10.432562,2.84277 -14.283308,-2.84277 h -9.906017 l -5.576874,4.40203 -2.927241,-4.40203 z" />
      <path
         id="rect3199"
         style="fill:#0a3949;fill-opacity:1;stroke:none;stroke-width:1.42156;stroke-miterlimit:4;stroke-dasharray:none;stroke-opacity:1"
         d="m 125.26541,177.37134 -0.12919,0.0748 v 47.55774 l 0.83354,0.46362 h 21.81572 c 0.64623,-0.56557 1.13889,-0.94555 1.34721,-0.99644 0.425,-0.10384 7.40854,0.38368 15.53755,0.99644 h 11.79515 v -48.0961 z" />
      <path
         id="rect3201"
         style="fill:#0a3949;fill-opacity:1;stroke:none;stroke-width:1.59503;stroke-miterlimit:4;stroke-dasharray:none;stroke-opacity:1"
         d="m 226.95171,177.33303 v 47.79156 h 1.90583 c 0.51651,-0.44163 0.93154,-0.7347 1.14928,-0.7347 0.60501,0 7.16971,0.37555 13.34441,0.7347 h 12.36823 c 4.26227,-0.75835 15.85772,-2.82242 16.96331,-3.03715 0.66759,-0.12967 4.64671,1.44818 8.41343,3.03715 h 2.9895 v -47.79156 h -9.6542 l -4.38319,2.03145 -4.7811,-2.03145 h -5.98156 l -2.67218,1.77551 c 0,0 -1.43648,-0.84703 -3.42202,-1.77551 h -11.85199 c -0.40367,0.71616 -0.68198,1.40954 -1.05885,1.77551 -0.34009,0.33028 -3.60309,-0.51763 -7.85637,-1.77551 z" />
      <path
         id="rect3203"
         style="fill:#0a3949;fill-opacity:1;stroke:none;stroke-width:1.51809;stroke-miterlimit:4;stroke-dasharray:none;stroke-opacity:1"
         d="m 334.12553,177.17514 v 47.96923 c 3.33814,-0.93196 6.39754,-1.73788 7.05022,-1.73788 0.59089,0 2.65525,0.90336 5.07669,2.03386 h 25.12094 c 2.59652,-0.73047 4.74877,-1.25843 5.62912,-1.25843 0.90556,0 2.96855,0.5299 5.37744,1.25843 h 4.41421 V 177.5512 c -1.61854,-0.12621 -2.92767,-0.23152 -4.84209,-0.37606 h -36.21794 c -1.83131,1.20776 -4.69207,2.40197 -7.19283,2.0516 -1.57133,-0.22015 -2.56585,-1.09774 -3.27475,-2.0516 z" />
      <path
         id="rect3205"
         style="fill:#0a3949;fill-opacity:1;stroke:none;stroke-width:1.51713;stroke-miterlimit:4;stroke-dasharray:none;stroke-opacity:1"
         d="m 432.36812,177.33303 v 47.94944 h 10.55539 c 3.46536,-1.17678 6.4228,-2.226 7.15285,-2.53362 0.70481,-0.29698 3.32075,0.93955 6.39335,2.53362 h 16.48121 c 0.68963,-1.53865 1.14357,-2.79041 1.14357,-2.79041 l 10.55335,2.79041 v -9.59371 l -2.98211,-3.20681 2.98211,-1.95458 v -7.59986 l -0.89365,-1.4823 0.89365,-2.57894 v -20.18185 l -13.02436,1.07901 -1.45341,-2.4304 z" />
      <path
         id="path3253"
         style="fill:#0d4d4d;fill-opacity:1;stroke:#092d24;stroke-width:1.32292;stroke-miterlimit:4;stroke-dasharray:none;stroke-opacity:1"
         d="m 20.752866,225.66279 v 36.11046 c 1.790751,1.01256 3.343982,1.90531 3.343982,1.90531 l 3.78995,11.19673 h 7.479128 c 3.688432,-2.32813 7.891026,-4.83152 9.148797,-4.97127 1.408361,-0.15649 4.204653,2.65732 6.248197,4.97127 h 35.428331 c 1.604716,-0.86334 3.35925,-1.54524 5.214151,-1.81022 2.84336,-0.4062 6.546974,0.52029 10.026258,1.81022 h 16.72404 l 2.22778,-1.81022 3.18017,1.81022 h 21.81572 c 0.64623,-0.5787 1.13889,-0.9675 1.3472,-1.01958 0.425,-0.10624 7.40855,0.3926 15.53756,1.01958 h 29.13103 l 2.74919,-2.33681 1.65571,2.33681 h 8.30234 c 1.85139,-1.31909 3.6175,-2.53894 4.26744,-2.86391 0.75134,-0.37567 1.50099,1.15599 2.08256,2.86391 h 4.89841 l 2.23914,-2.33681 c 0,0 0.47959,1.26256 0.88832,2.33681 h 7.97315 c 0.51651,-0.45475 0.93155,-0.75654 1.14929,-0.75654 0.60501,0 7.1697,0.38672 13.3444,0.75654 h 12.36824 c 4.26227,-0.7809 15.85772,-2.90634 16.96331,-3.12746 0.66759,-0.13352 4.64671,1.49124 8.41343,3.12746 h 20.32487 c 3.79597,-1.00961 7.34121,-2.06812 8.93278,-2.86391 2.48163,-1.24082 6.77979,0.89566 9.90328,2.86391 h 12.80284 c 3.74089,-1.07634 7.39296,-2.07377 8.11578,-2.07377 0.59089,0 2.65525,0.92108 5.07669,2.07377 h 25.12094 c 2.59652,-0.74481 4.74877,-1.28312 5.62912,-1.28312 0.90556,0 2.96854,0.54029 5.37744,1.28312 h 28.07322 c 1.10054,-0.26284 1.95612,-0.44633 2.37609,-0.49299 0.49477,-0.055 1.38195,0.15092 2.48306,0.49299 h 27.70683 c 3.49676,-1.20778 6.48099,-2.28464 7.21765,-2.60036 0.7112,-0.3048 3.35084,0.9643 6.45128,2.60036 h 16.63052 c 0.69588,-1.57918 1.15392,-2.86391 1.15392,-2.86391 l 10.64898,2.86391 v -9.84643 l -3.00913,-3.29127 3.00913,-2.00608 v -7.80004 l -0.90175,-1.52135 0.90175,-2.64687 v -20.71346 l -13.14236,1.10742 -1.46658,-2.49442 H 429.0406 c -0.71734,0.59737 -1.23092,1.03818 -1.23092,1.03818 l -5.73712,-1.03818 h -27.97812 l -1.58441,1.03818 c 0,0 -5.67785,-0.47728 -12.96408,-1.03818 h -36.21794 c -1.83131,1.23146 -4.69207,2.44911 -7.19283,2.09186 -1.57133,-0.22447 -2.56585,-1.11928 -3.27475,-2.09186 h -6.23062 c -0.62246,0.4151 -1.17949,0.66292 -1.55908,0.51108 -0.25347,-0.10139 -0.49694,-0.28176 -0.73277,-0.51108 h -5.40173 c -0.26905,0.59339 -0.45114,1.03818 -0.45114,1.03818 l -9.09971,-1.03818 h -37.35999 l -4.38319,2.09186 -4.7811,-2.09186 h -5.98157 l -2.67218,1.82831 c 0,0 -1.43647,-0.87222 -3.42201,-1.82831 h -11.85199 c -0.40367,0.73746 -0.68198,1.45145 -1.05885,1.82831 -0.34009,0.34009 -3.60309,-0.53302 -7.85637,-1.82831 h -25.88421 c -1.22836,2.21512 -2.34972,4.19923 -2.34972,4.19923 l -27.19008,-4.19923 H 122.8593 l -3.53002,2.09186 -16.62948,-2.09186 H 65.840553 l -10.525456,2.882 -14.410489,-2.882 h -9.994223 l -5.626529,4.46278 -2.953308,-4.46278 z" />
      <path
         id="path3255"
         style="fill:#0a3949;fill-opacity:1;stroke:none;stroke-width:1.58138;stroke-miterlimit:4;stroke-dasharray:none;stroke-opacity:1"
         d="m 73.079612,226.38507 v 47.94865 h 13.111861 c 1.604717,-0.84117 3.359251,-1.50557 5.214153,-1.76374 2.84336,-0.39579 6.546982,0.50694 10.026264,1.76374 h 16.72405 l 2.22777,-1.76374 3.18017,1.76374 h 3.90932 v -47.94865 h -4.61368 l -3.53001,2.03814 -16.62948,-2.03814 z" />
      <path
         id="path3257"
         style="fill:#0a3949;fill-opacity:1;stroke:none;stroke-width:1.58732;stroke-miterlimit:4;stroke-dasharray:none;stroke-opacity:1"
         d="m 204.13415,226.02396 c -1.22836,2.17449 -2.34972,4.1222 -2.34972,4.1222 l -22.48442,-3.40895 v 47.59651 h 12.09538 l 2.74919,-2.29393 1.65571,2.29393 h 8.30234 c 1.85139,-1.29491 3.6175,-2.49237 4.26744,-2.81138 0.75134,-0.36878 1.50099,1.13479 2.08256,2.81138 h 4.89841 l 2.23914,-2.29393 c 0,0 0.47959,1.23937 0.88832,2.29393 h 7.97315 c 0.51651,-0.44642 0.93155,-0.74268 1.14929,-0.74268 0.35462,0 2.92164,0.14158 6.09265,0.32264 V 227.0781 c -1.08987,-0.29551 -2.32311,-0.64992 -3.67523,-1.05414 z" />
      <path
         id="path3259"
         style="fill:#0a3949;fill-opacity:1;stroke:none;stroke-width:1.58435;stroke-miterlimit:4;stroke-dasharray:none;stroke-opacity:1"
         d="m 285.00983,226.02396 v 48.12921 h 14.00535 c 3.79597,-0.98741 7.34123,-2.02259 8.9328,-2.80087 2.48161,-1.2135 6.77977,0.87593 9.90325,2.80087 h 12.80285 c 3.74089,-1.05266 7.39296,-2.02813 8.11577,-2.02813 0.13555,0 0.35642,0.0523 0.63358,0.13897 v -44.46613 c -1.08369,0.28918 -2.20787,0.42002 -3.26803,0.2719 -1.57134,-0.21953 -2.56583,-1.09464 -3.27472,-2.04582 h -6.23065 c -0.62246,0.40597 -1.17949,0.64833 -1.55906,0.49983 -0.25347,-0.0992 -0.49696,-0.27556 -0.73279,-0.49983 h -5.40173 c -0.26906,0.58033 -0.45114,1.01533 -0.45114,1.01533 l -9.09971,-1.01533 z" />
      <path
         id="path3261"
         style="fill:#0a3949;fill-opacity:1;stroke:none;stroke-width:1.48919;stroke-miterlimit:4;stroke-dasharray:none;stroke-opacity:1"
         d="m 390.54516,225.97863 -1.40046,1.01487 c 0,0 -1.05953,-0.0965 -1.58269,-0.14448 v 47.23694 h 15.31585 c 0.97276,-0.25693 1.72899,-0.4363 2.10019,-0.48193 0.43732,-0.0537 1.22151,0.14753 2.19477,0.48193 h 24.48998 c 1.49364,-0.57057 2.86857,-1.10655 3.97752,-1.54781 v -46.55952 h -14.20634 c -0.63405,0.58395 -1.08802,1.01487 -1.08802,1.01487 l -5.07103,-1.01487 z" />
      <path
         id="path3303"
         style="fill:#0d4d4d;fill-opacity:1;stroke:#092d24;stroke-width:1.32292;stroke-miterlimit:4;stroke-dasharray:none;stroke-opacity:1"
         d="m 23.159134,130.72797 v 36.11046 c 1.790751,1.01256 3.343982,1.90531 3.343982,1.90531 l 3.78995,11.19673 h 7.479128 c 3.688432,-2.32813 7.891026,-4.83152 9.148797,-4.97127 1.408361,-0.15649 4.204653,2.65732 6.248197,4.97127 h 35.428331 c 1.604716,-0.86334 3.35925,-1.54524 5.214151,-1.81022 2.84336,-0.4062 6.54697,0.52029 10.02625,1.81022 h 16.72404 l 2.22778,-1.81022 3.18017,1.81022 h 21.81572 c 0.64623,-0.5787 1.13889,-0.9675 1.3472,-1.01958 0.425,-0.10624 7.40855,0.3926 15.53756,1.01958 h 29.13103 l 2.74919,-2.33681 1.65571,2.33681 h 8.30234 c 1.85139,-1.31909 3.6175,-2.53894 4.26744,-2.86391 0.75134,-0.37567 1.50099,1.15599 2.08256,2.86391 h 4.89841 l 2.23914,-2.33681 c 0,0 0.47959,1.26256 0.88832,2.33681 h 7.97315 c 0.51651,-0.45475 0.93155,-0.75654 1.14929,-0.75654 0.60501,0 7.1697,0.38672 13.3444,0.75654 h 12.36824 c 4.26227,-0.7809 15.85772,-2.90634 16.96331,-3.12746 0.66759,-0.13352 4.64671,1.49124 8.41343,3.12746 h 20.32487 c 3.79597,-1.00961 7.34121,-2.06812 8.93278,-2.86391 2.48163,-1.24082 6.77979,0.89566 9.90328,2.86391 h 12.80284 c 3.74089,-1.07634 7.39296,-2.07377 8.11578,-2.07377 0.59089,0 2.65525,0.92108 5.07669,2.07377 h 25.12094 c 2.59652,-0.74481 4.74877,-1.28312 5.62912,-1.28312 0.90556,0 2.96854,0.54029 5.37744,1.28312 h 28.07322 c 1.10054,-0.26284 1.95612,-0.44633 2.37609,-0.49299 0.49477,-0.055 1.38195,0.15092 2.48306,0.49299 h 27.70683 c 3.49676,-1.20778 6.48099,-2.28464 7.21765,-2.60036 0.7112,-0.3048 3.35084,0.9643 6.45128,2.60036 h 16.63052 c 0.69588,-1.57918 1.15392,-2.86391 1.15392,-2.86391 l 10.64898,2.86391 v -9.84643 l -3.00913,-3.29127 3.00913,-2.00608 v -7.80004 l -0.90175,-1.52135 0.90175,-2.64687 v -20.71346 l -13.14236,1.10742 -1.46658,-2.49442 h -39.06584 c -0.71734,0.59737 -1.23092,1.03818 -1.23092,1.03818 l -5.73712,-1.03818 H 396.5007 l -1.58441,1.03818 c 0,0 -5.67785,-0.47728 -12.96408,-1.03818 h -36.21794 c -1.83131,1.23146 -4.69207,2.44911 -7.19283,2.09186 -1.57133,-0.22447 -2.56585,-1.11928 -3.27475,-2.09186 h -6.23062 c -0.62246,0.4151 -1.17949,0.66292 -1.55908,0.51108 -0.25347,-0.10139 -0.49694,-0.28176 -0.73277,-0.51108 h -5.40173 c -0.26905,0.59339 -0.45114,1.03818 -0.45114,1.03818 l -9.09971,-1.03818 h -37.35999 l -4.38319,2.09186 -4.7811,-2.09186 h -5.98157 l -2.67218,1.82831 c 0,0 -1.43647,-0.87222 -3.42201,-1.82831 h -11.85199 c -0.40367,0.73746 -0.68198,1.45145 -1.05885,1.82831 -0.34009,0.34009 -3.60309,-0.53302 -7.85637,-1.82831 h -25.88421 c -1.22836,2.21512 -2.34972,4.19923 -2.34972,4.19923 l -27.19008,-4.19923 h -51.73482 l -3.53002,2.09186 -16.62948,-2.09186 H 68.246821 l -10.525456,2.882 -14.410489,-2.882 h -9.994223 l -5.626529,4.46278 -2.953308,-4.46278 z" />
      <path
         id="path3305"
         style="fill:#0a3949;fill-opacity:1;stroke:none;stroke-width:1.58138;stroke-miterlimit:4;stroke-dasharray:none;stroke-opacity:1"
         d="m 75.48588,131.45025 v 47.94865 h 13.111861 c 1.604717,-0.84117 3.359251,-1.50557 5.214153,-1.76374 2.84336,-0.39579 6.546986,0.50694 10.026256,1.76374 h 16.72405 l 2.22777,-1.76374 3.18017,1.76374 h 3.90932 v -47.94865 h -4.61368 l -3.53001,2.03814 -16.62948,-2.03814 z" />
      <path
         id="path3307"
         style="fill:#0a3949;fill-opacity:1;stroke:none;stroke-width:1.58732;stroke-miterlimit:4;stroke-dasharray:none;stroke-opacity:1"
         d="m 206.54041,131.08914 c -1.22836,2.17449 -2.34972,4.1222 -2.34972,4.1222 l -22.48442,-3.40895 v 47.59651 h 12.09538 l 2.74919,-2.29393 1.65571,2.29393 h 8.30234 c 1.85139,-1.29491 3.6175,-2.49237 4.26744,-2.81138 0.75134,-0.36878 1.50099,1.13479 2.08256,2.81138 h 4.89841 l 2.23914,-2.29393 c 0,0 0.47959,1.23937 0.88832,2.29393 h 7.97315 c 0.51651,-0.44642 0.93155,-0.74268 1.14929,-0.74268 0.35462,0 2.92164,0.14158 6.09265,0.32264 v -46.83558 c -1.08987,-0.29551 -2.32311,-0.64992 -3.67523,-1.05414 z" />
      <path
         id="path3309"
         style="fill:#0a3949;fill-opacity:1;stroke:none;stroke-width:1.58435;stroke-miterlimit:4;stroke-dasharray:none;stroke-opacity:1"
         d="m 287.41609,131.08914 v 48.12921 h 14.00535 c 3.79597,-0.98741 7.34123,-2.02259 8.9328,-2.80087 2.48161,-1.2135 6.77977,0.87593 9.90325,2.80087 h 12.80285 c 3.74089,-1.05266 7.39296,-2.02813 8.11577,-2.02813 0.13555,0 0.35642,0.0523 0.63358,0.13897 v -44.46613 c -1.08369,0.28918 -2.20787,0.42002 -3.26803,0.2719 -1.57134,-0.21953 -2.56583,-1.09464 -3.27472,-2.04582 h -6.23065 c -0.62246,0.40597 -1.17949,0.64833 -1.55906,0.49983 -0.25347,-0.0992 -0.49696,-0.27556 -0.73279,-0.49983 h -5.40173 c -0.26906,0.58033 -0.45114,1.01533 -0.45114,1.01533 l -9.09971,-1.01533 z" />
      <path
         id="path3311"
         style="fill:#0a3949;fill-opacity:1;stroke:none;stroke-width:1.48919;stroke-miterlimit:4;stroke-dasharray:none;stroke-opacity:1"
         d="m 392.95142,131.04381 -1.40046,1.01487 c 0,0 -1.05953,-0.0965 -1.58269,-0.14448 v 47.23694 h 15.31585 c 0.97276,-0.25693 1.72899,-0.4363 2.10019,-0.48193 0.43732,-0.0537 1.22151,0.14753 2.19477,0.48193 h 24.48998 c 1.49364,-0.57057 2.86857,-1.10655 3.97752,-1.54781 v -46.55952 h -14.20634 c -0.63405,0.58395 -1.08802,1.01487 -1.08802,1.01487 l -5.07103,-1.01487 z" />
      <path
         id="path3315"
         style="fill:#0d4d4d;fill-opacity:1;stroke:#092d24;stroke-width:1.32292;stroke-miterlimit:4;stroke-dasharray:none;stroke-opacity:1"
         d="m 23.159132,84.264154 v 36.110456 c 1.790751,1.01256 3.343982,1.90531 3.343982,1.90531 l 3.78995,11.19673 h 7.479128 c 3.688432,-2.32813 7.891026,-4.83152 9.148797,-4.97127 1.408361,-0.15649 4.204653,2.65732 6.248197,4.97127 h 35.428331 c 1.604716,-0.86334 3.35925,-1.54524 5.214151,-1.81022 2.843358,-0.4062 6.546982,0.52029 10.026262,1.81022 h 16.72404 l 2.22778,-1.81022 3.18017,1.81022 h 21.81572 c 0.64623,-0.5787 1.13889,-0.9675 1.3472,-1.01958 0.425,-0.10624 7.40855,0.3926 15.53756,1.01958 h 29.13103 l 2.74919,-2.33681 1.65571,2.33681 h 8.30234 c 1.85139,-1.31909 3.6175,-2.53894 4.26744,-2.86391 0.75134,-0.37567 1.50099,1.15599 2.08256,2.86391 h 4.89841 l 2.23914,-2.33681 c 0,0 0.47959,1.26256 0.88832,2.33681 h 7.97315 c 0.51651,-0.45475 0.93155,-0.75654 1.14929,-0.75654 0.60501,0 7.1697,0.38672 13.3444,0.75654 h 12.36824 c 4.26227,-0.7809 15.85772,-2.90634 16.96331,-3.12746 0.66759,-0.13352 4.64671,1.49124 8.41343,3.12746 h 20.32487 c 3.79597,-1.00961 7.34121,-2.06812 8.93278,-2.86391 2.48163,-1.24082 6.77979,0.89566 9.90328,2.86391 h 12.80284 c 3.74089,-1.07634 7.39296,-2.07377 8.11578,-2.07377 0.59089,0 2.65525,0.92108 5.07669,2.07377 h 25.12094 c 2.59652,-0.74481 4.74877,-1.28312 5.62912,-1.28312 0.90556,0 2.96854,0.54029 5.37744,1.28312 h 28.07322 c 1.10054,-0.26284 1.95612,-0.44633 2.37609,-0.49299 0.49477,-0.055 1.38195,0.15092 2.48306,0.49299 h 27.70683 c 3.49676,-1.20778 6.48099,-2.28464 7.21765,-2.60036 0.7112,-0.3048 3.35084,0.9643 6.45128,2.60036 h 16.63052 c 0.69588,-1.57918 1.15392,-2.86391 1.15392,-2.86391 l 10.64898,2.86391 v -9.84643 l -3.00913,-3.29127 3.00913,-2.00608 v -7.80004 l -0.90175,-1.52135 0.90175,-2.64687 V 85.651154 l -13.14236,1.10742 -1.46658,-2.49442 h -39.06584 c -0.71734,0.59737 -1.23092,1.03818 -1.23092,1.03818 l -5.73712,-1.03818 h -27.97812 l -1.58441,1.03818 c 0,0 -5.67785,-0.47728 -12.96408,-1.03818 h -36.21794 c -1.83131,1.23146 -4.69207,2.44911 -7.19283,2.09186 -1.57133,-0.22447 -2.56585,-1.11928 -3.27475,-2.09186 h -6.23062 c -0.62246,0.4151 -1.17949,0.66292 -1.55908,0.51108 -0.25347,-0.10139 -0.49694,-0.28176 -0.73277,-0.51108 h -5.40173 c -0.26905,0.59339 -0.45114,1.03818 -0.45114,1.03818 l -9.09971,-1.03818 h -37.35999 l -4.38319,2.09186 -4.7811,-2.09186 h -5.98157 l -2.67218,1.82831 c 0,0 -1.43647,-0.87222 -3.42201,-1.82831 h -11.85199 c -0.40367,0.73746 -0.68198,1.45145 -1.05885,1.82831 -0.34009,0.34009 -3.60309,-0.53302 -7.85637,-1.82831 h -25.88421 c -1.22836,2.21512 -2.34972,4.19923 -2.34972,4.19923 l -27.19008,-4.19923 h -51.73482 l -3.53002,2.09186 -16.62948,-2.09186 H 68.246819 l -10.525456,2.882 -14.410489,-2.882 h -9.994223 l -5.626529,4.46278 -2.953308,-4.46278 z" />
      <path
         id="path3317"
         style="fill:#0a3949;fill-opacity:1;stroke:none;stroke-width:1.42182;stroke-miterlimit:4;stroke-dasharray:none;stroke-opacity:1"
         d="m 23.605529,84.487264 v 35.618946 c 1.774949,0.99878 3.314471,1.87938 3.314471,1.87938 l 3.756502,11.04433 h 7.41312 c 3.655879,-2.29644 7.821384,-4.76576 9.068054,-4.90361 1.395931,-0.15436 4.167543,2.62116 6.193052,4.90361 h 20.40619 V 84.487264 h -5.461627 l -10.432562,2.84277 -14.283308,-2.84277 h -9.906017 l -5.576874,4.40203 -2.927241,-4.40203 z" />
      <path
         id="path3319"
         style="fill:#0a3949;fill-opacity:1;stroke:none;stroke-width:1.42156;stroke-miterlimit:4;stroke-dasharray:none;stroke-opacity:1"
         d="m 125.26541,84.933824 -0.12919,0.0748 v 47.557736 l 0.83354,0.46362 h 21.81572 c 0.64623,-0.56557 1.13889,-0.94555 1.34721,-0.99644 0.425,-0.10384 7.40854,0.38368 15.53755,0.99644 h 11.79515 V 84.933884 Z" />
      <path
         id="path3321"
         style="fill:#0a3949;fill-opacity:1;stroke:none;stroke-width:1.59503;stroke-miterlimit:4;stroke-dasharray:none;stroke-opacity:1"
         d="m 226.95171,84.895514 v 47.791556 h 1.90583 c 0.51651,-0.44163 0.93154,-0.7347 1.14928,-0.7347 0.60501,0 7.16971,0.37555 13.34441,0.7347 h 12.36823 c 4.26227,-0.75835 15.85772,-2.82242 16.96331,-3.03715 0.66759,-0.12967 4.64671,1.44818 8.41343,3.03715 h 2.9895 V 84.895514 h -9.6542 l -4.38319,2.03145 -4.7811,-2.03145 h -5.98156 l -2.67218,1.77551 c 0,0 -1.43648,-0.84703 -3.42202,-1.77551 h -11.85199 c -0.40367,0.71616 -0.68198,1.40954 -1.05885,1.77551 -0.34009,0.33028 -3.60309,-0.51763 -7.85637,-1.77551 z" />
      <path
         id="path3323"
         style="fill:#0a3949;fill-opacity:1;stroke:none;stroke-width:1.51809;stroke-miterlimit:4;stroke-dasharray:none;stroke-opacity:1"
         d="m 334.12553,84.737624 v 47.969226 c 3.33814,-0.93196 6.39754,-1.73788 7.05022,-1.73788 0.59089,0 2.65525,0.90336 5.07669,2.03386 h 25.12094 c 2.59652,-0.73047 4.74877,-1.25843 5.62912,-1.25843 0.90556,0 2.96855,0.5299 5.37744,1.25843 h 4.41421 V 85.113684 c -1.61854,-0.12621 -2.92767,-0.23152 -4.84209,-0.37606 h -36.21794 c -1.83131,1.20776 -4.69207,2.40197 -7.19283,2.0516 -1.57133,-0.22015 -2.56585,-1.09774 -3.27475,-2.0516 z" />
      <path
         id="path3325"
         style="fill:#0a3949;fill-opacity:1;stroke:none;stroke-width:1.51713;stroke-miterlimit:4;stroke-dasharray:none;stroke-opacity:1"
         d="m 432.36812,84.895514 v 47.949436 h 10.55539 c 3.46536,-1.17678 6.4228,-2.226 7.15285,-2.53362 0.70481,-0.29698 3.32075,0.93955 6.39335,2.53362 h 16.48121 c 0.68963,-1.53865 1.14357,-2.79041 1.14357,-2.79041 l 10.55335,2.79041 v -9.59371 l -2.98211,-3.20681 2.98211,-1.95458 v -7.59986 l -0.89365,-1.4823 0.89365,-2.57894 V 86.246904 l -13.02436,1.07901 -1.45341,-2.4304 z" />
      <path
         id="path3329"
         style="fill:#0d4d4d;fill-opacity:1;stroke:#092d24;stroke-width:1.32292;stroke-miterlimit:4;stroke-dasharray:none;stroke-opacity:1"
         d="m 23.159134,37.84389 v 36.11046 c 1.790751,1.01256 3.343982,1.90531 3.343982,1.90531 l 3.78995,11.19673 h 7.479128 c 3.688432,-2.32813 7.891026,-4.83152 9.148797,-4.97127 1.408361,-0.15649 4.204653,2.65732 6.248197,4.97127 h 35.428331 c 1.604716,-0.86334 3.35925,-1.54524 5.214151,-1.81022 2.84336,-0.4062 6.54697,0.52029 10.02625,1.81022 h 16.72404 l 2.22778,-1.81022 3.18017,1.81022 h 21.81572 c 0.64623,-0.5787 1.13889,-0.9675 1.3472,-1.01958 0.425,-0.10624 7.40855,0.3926 15.53756,1.01958 h 29.13103 l 2.74919,-2.33681 1.65571,2.33681 h 8.30234 c 1.85139,-1.31909 3.6175,-2.53894 4.26744,-2.86391 0.75134,-0.37567 1.50099,1.15599 2.08256,2.86391 h 4.89841 l 2.23914,-2.33681 c 0,0 0.47959,1.26256 0.88832,2.33681 h 7.97315 c 0.51651,-0.45475 0.93155,-0.75654 1.14929,-0.75654 0.60501,0 7.1697,0.38672 13.3444,0.75654 h 12.36824 c 4.26227,-0.7809 15.85772,-2.90634 16.96331,-3.12746 0.66759,-0.13352 4.64671,1.49124 8.41343,3.12746 h 20.32487 c 3.79597,-1.00961 7.34121,-2.06812 8.93278,-2.86391 2.48163,-1.24082 6.77979,0.89566 9.90328,2.86391 h 12.80284 c 3.74089,-1.07634 7.39296,-2.07377 8.11578,-2.07377 0.59089,0 2.65525,0.92108 5.07669,2.07377 h 25.12094 c 2.59652,-0.74481 4.74877,-1.28312 5.62912,-1.28312 0.90556,0 2.96854,0.54029 5.37744,1.28312 h 28.07322 c 1.10054,-0.26284 1.95612,-0.44633 2.37609,-0.49299 0.49477,-0.055 1.38195,0.15092 2.48306,0.49299 h 27.70683 c 3.49676,-1.20778 6.48099,-2.28464 7.21765,-2.60036 0.7112,-0.3048 3.35084,0.9643 6.45128,2.60036 h 16.63052 c 0.69588,-1.57918 1.15392,-2.86391 1.15392,-2.86391 l 10.64898,2.86391 v -9.84643 l -3.00913,-3.29127 3.00913,-2.00608 v -7.80004 l -0.90175,-1.52135 0.90175,-2.64687 V 39.23089 l -13.14236,1.10742 -1.46658,-2.49442 h -39.06584 c -0.71734,0.59737 -1.23092,1.03818 -1.23092,1.03818 l -5.73712,-1.03818 H 396.5007 l -1.58441,1.03818 c 0,0 -5.67785,-0.47728 -12.96408,-1.03818 h -36.21794 c -1.83131,1.23146 -4.69207,2.44911 -7.19283,2.09186 -1.57133,-0.22447 -2.56585,-1.11928 -3.27475,-2.09186 h -6.23062 c -0.62246,0.4151 -1.17949,0.66292 -1.55908,0.51108 -0.25347,-0.10139 -0.49694,-0.28176 -0.73277,-0.51108 h -5.40173 c -0.26905,0.59339 -0.45114,1.03818 -0.45114,1.03818 l -9.09971,-1.03818 h -37.35999 l -4.38319,2.09186 -4.7811,-2.09186 h -5.98157 l -2.67218,1.82831 c 0,0 -1.43647,-0.87222 -3.42201,-1.82831 h -11.85199 c -0.40367,0.73746 -0.68198,1.45145 -1.05885,1.82831 -0.34009,0.34009 -3.60309,-0.53302 -7.85637,-1.82831 h -25.88421 c -1.22836,2.21512 -2.34972,4.19923 -2.34972,4.19923 l -27.19008,-4.19923 h -51.73482 l -3.53002,2.09186 -16.62948,-2.09186 H 68.246821 l -10.525456,2.882 -14.410489,-2.882 h -9.994223 l -5.626529,4.46278 -2.953308,-4.46278 z" />
      <path
         id="path3331"
         style="fill:#0a3949;fill-opacity:1;stroke:none;stroke-width:1.58138;stroke-miterlimit:4;stroke-dasharray:none;stroke-opacity:1"
         d="m 75.48588,38.56617 v 47.94865 h 13.111861 c 1.604717,-0.84117 3.359251,-1.50557 5.214153,-1.76374 2.84336,-0.39579 6.546986,0.50694 10.026256,1.76374 h 16.72405 l 2.22777,-1.76374 3.18017,1.76374 h 3.90932 V 38.56617 h -4.61368 l -3.53001,2.03814 -16.62948,-2.03814 z" />
      <path
         id="path3333"
         style="fill:#0a3949;fill-opacity:1;stroke:none;stroke-width:1.58732;stroke-miterlimit:4;stroke-dasharray:none;stroke-opacity:1"
         d="m 206.54041,38.20506 c -1.22836,2.17449 -2.34972,4.1222 -2.34972,4.1222 l -22.48442,-3.40895 v 47.59651 h 12.09538 l 2.74919,-2.29393 1.65571,2.29393 h 8.30234 c 1.85139,-1.29491 3.6175,-2.49237 4.26744,-2.81138 0.75134,-0.36878 1.50099,1.13479 2.08256,2.81138 h 4.89841 l 2.23914,-2.29393 c 0,0 0.47959,1.23937 0.88832,2.29393 h 7.97315 c 0.51651,-0.44642 0.93155,-0.74268 1.14929,-0.74268 0.35462,0 2.92164,0.14158 6.09265,0.32264 V 39.2592 c -1.08987,-0.29551 -2.32311,-0.64992 -3.67523,-1.05414 z" />
      <path
         id="path3335"
         style="fill:#0a3949;fill-opacity:1;stroke:none;stroke-width:1.58435;stroke-miterlimit:4;stroke-dasharray:none;stroke-opacity:1"
         d="m 287.41609,38.20506 v 48.12921 h 14.00535 c 3.79597,-0.98741 7.34123,-2.02259 8.9328,-2.80087 2.48161,-1.2135 6.77977,0.87593 9.90325,2.80087 h 12.80285 c 3.74089,-1.05266 7.39296,-2.02813 8.11577,-2.02813 0.13555,0 0.35642,0.0523 0.63358,0.13897 V 39.97898 c -1.08369,0.28918 -2.20787,0.42002 -3.26803,0.2719 -1.57134,-0.21953 -2.56583,-1.09464 -3.27472,-2.04582 h -6.23065 c -0.62246,0.40597 -1.17949,0.64833 -1.55906,0.49983 -0.25347,-0.0992 -0.49696,-0.27556 -0.73279,-0.49983 h -5.40173 c -0.26906,0.58033 -0.45114,1.01533 -0.45114,1.01533 l -9.09971,-1.01533 z" />
      <path
         id="path3337"
         style="fill:#0a3949;fill-opacity:1;stroke:none;stroke-width:1.48919;stroke-miterlimit:4;stroke-dasharray:none;stroke-opacity:1"
         d="m 392.95142,38.15973 -1.40046,1.01487 c 0,0 -1.05953,-0.0965 -1.58269,-0.14448 v 47.23694 h 15.31585 c 0.97276,-0.25693 1.72899,-0.4363 2.10019,-0.48193 0.43732,-0.0537 1.22151,0.14753 2.19477,0.48193 h 24.48998 c 1.49364,-0.57057 2.86857,-1.10655 3.97752,-1.54781 V 38.15973 h -14.20634 c -0.63405,0.58395 -1.08802,1.01487 -1.08802,1.01487 l -5.07103,-1.01487 z" />
    </g>
    <path
       sodipodi:type="star"
       style="fill:#ffffff;fill-opacity:1;stroke:none;stroke-width:0.422842;stroke-miterlimit:4;stroke-dasharray:none;stroke-opacity:1"
       id="path1024"
       sodipodi:sides="5"
       sodipodi:cx="302.77687"
       sodipodi:cy="7.3472414"
       sodipodi:r1="4.3622584"
       sodipodi:r2="2.1811292"
       sodipodi:arg1="0.52359878"
       sodipodi:arg2="1.1519173"
       inkscape:flatsided="false"
       inkscape:rounded="0"
       inkscape:randomized="0"
       d="m 306.55468,9.5283706 -2.89068,-0.1885685 -1.79411,2.2743719 -0.71393,-2.8074723 -2.71747,-1.0034801 2.44945,-1.5465448 0.11463,-2.8945568 2.22777,1.8516551 2.78831,-0.7854543 -1.07261,2.6909305 z"
       inkscape:transform-center-x="2.0273893e-06"
       inkscape:transform-center-y="-1.0905655" />
    <g
       id="g3398">
      <path
         style="fill:#756fcb;stroke:#000000;stroke-width:1.32291668;stroke-linecap:butt;stroke-linejoin:miter;stroke-opacity:1;fill-opacity:1;stroke-miterlimit:4;stroke-dasharray:none"
         d="M -1.2536852,0 32.595816,0.41789507 c 0,0 2.925265,36.77476493 2.925265,39.28213693 0,2.507369 -4.178951,25.909493 -4.178951,25.909493 0,0 -0.83579,13.790536 -0.83579,17.551591 0,3.761057 -2.089475,12.118956 -0.83579,24.655814 1.253684,12.53685 1.253684,59.34109 1.253684,59.34109 0,0 4.596847,19.22318 4.596847,26.74529 0,7.52211 -1.671582,23.82002 -3.343162,31.34213 -1.671579,7.52211 -6.68632,24.23791 -6.68632,30.92423 0,6.68632 0.83579,15.88003 0.83579,15.88003 l 57.669519,2.92526 c 0,0 37.610552,1.67158 40.535822,1.67158 2.92526,0 42.2074,0.83577 47.64003,-0.83579 5.43264,-1.67159 23.40213,-1.67159 27.58108,-1.67159 4.17895,0 46.38635,4.17894 48.05793,3.76106 1.67158,-0.41791 20.05897,-4.59685 25.90948,-5.01476 5.85055,-0.41788 27.99898,0.41791 31.76003,0.41791 3.76106,0 25.90951,-1.67158 33.43162,-1.67158 7.5221,0 12.11895,1.25367 27.16318,1.67158 15.04421,0.41788 81.48953,1.25368 86.50428,1.25368 5.01473,0 30.50633,1.2537 30.50633,1.2537 0,0 -3.76106,-43.87899 -2.08947,-47.64005 1.67158,-3.76105 2.08947,-8.3579 4.17893,-17.55159 2.0895,-9.19369 -1.25367,-31.76002 -2.08946,-35.93897 -0.8358,-4.17896 -2.08947,-17.5516 -2.50738,-23.82002 -0.41788,-6.26843 -2.92526,-24.23792 -2.92526,-24.23792 l -3.34317,-40.117923 c 0,0 -0.83577,-19.223173 -2.08947,-22.984228 -1.25367,-3.761055 -2.92526,-22.148438 -2.92526,-22.148438 0,0 18.80529,-3.343161 23.82002,-2.925265 5.01475,0.417893 13.37265,-1.253686 15.88,2.089475 l 10.44738,33.431603 c 0,0 -0.4179,166.740126 -0.4179,175.098026 0,8.3579 0,42.2074 -0.83579,44.29688 -0.83579,2.08947 -48.05793,6.68632 -55.58004,5.43263 -7.52211,-1.25368 -103.63797,-12.11895 -109.4885,-9.61158 -5.85053,2.50737 -47.64004,7.10421 -64.77373,8.3579 -17.1337,1.25368 -115.75693,-6.26843 -120.77167,-4.59685 -5.01474,1.67158 -52.23689,9.19369 -64.35584,10.02948 -12.118959,0.83579 -62.266365,-7.52211 -71.042161,-8.77579 -8.775796,-1.25369 -40.117925,-5.43264 -41.7895052,-6.26843 -1.6715798,-0.83579 -3.7610558,-29.67055 -1.2536848,-36.35687 2.50737,-6.68632 2.925265,-48.89372 2.50737,-51.81899 -0.4178951,-2.92526 -2.50737,-13.37264 -0.8357901,-26.74528 1.6715802,-13.37264 4.1789505,-65.19163 4.1789505,-73.549528 0,-8.357901 -3.3431604,-53.072671 -4.5968456,-60.594782 C -10.865271,31.342129 -13.372642,14.626327 -11.283166,11.283166 -9.1936911,7.940006 -1.2536852,0 -1.2536852,0 Z"
         id="path2782" />
      <path
         style="fill:none;stroke:#000000;stroke-width:1.32291668;stroke-linecap:butt;stroke-linejoin:miter;stroke-opacity:1;stroke-miterlimit:4;stroke-dasharray:none"
         d="M -7.9400061,54.744254 C 5.3853809,49.458693 18.957403,55.580043 32.595816,55.580043"
         id="path2796" />
      <path
         style="fill:none;stroke:#000000;stroke-width:1.32291668;stroke-linecap:butt;stroke-linejoin:miter;stroke-opacity:1;stroke-miterlimit:4;stroke-dasharray:none"
         d="M -5.8505308,101.13061 C 2.7584271,92.642981 20.078197,95.479404 28.834758,91.101124"
         id="path2798" />
      <path
         style="fill:none;stroke:#000000;stroke-width:1.2561;stroke-linecap:butt;stroke-linejoin:miter;stroke-miterlimit:4;stroke-dasharray:none;stroke-opacity:1"
         d="m -6.2682,134.13187 c 13.5771804,-3.85914 23.551713,9.98955 36.774055,6.29352"
         id="path2800" />
      <path
         style="fill:none;stroke:#000000;stroke-width:1.28085;stroke-linecap:butt;stroke-linejoin:miter;stroke-miterlimit:4;stroke-dasharray:none;stroke-opacity:1"
         d="m -10.41733,184.29172 c 16.4619155,6.10646 31.704093,-3.93604 44.266829,-5.85053"
         id="path2802" />
      <path
         style="fill:none;stroke:#000000;stroke-width:1.25998;stroke-linecap:butt;stroke-linejoin:miter;stroke-miterlimit:4;stroke-dasharray:none;stroke-opacity:1"
         d="m -8.8015992,219.8128 c 11.549862,-2.2252 34.6185102,6.26843 40.5616222,6.26843"
         id="path2804" />
      <path
         style="fill:none;stroke:#000000;stroke-width:1.25274;stroke-linecap:butt;stroke-linejoin:miter;stroke-miterlimit:4;stroke-dasharray:none;stroke-opacity:1"
         d="M -11.650078,277.06443 C 2.5114219,276.95717 15.194366,271.46357 25.073703,262.0202"
         id="path2806" />
      <path
         style="fill:none;stroke:#000000;stroke-width:1.36305;stroke-linecap:butt;stroke-linejoin:miter;stroke-miterlimit:4;stroke-dasharray:none;stroke-opacity:1"
         d="m 57.679864,272.46673 c 2.539682,9.99984 8.885221,18.86993 12.098234,27.9969"
         id="path2808" />
      <path
         style="fill:none;stroke:#000000;stroke-width:1.27296;stroke-linecap:butt;stroke-linejoin:miter;stroke-miterlimit:4;stroke-dasharray:none;stroke-opacity:1"
         d="m 109.9064,302.57088 c -3.24823,-9.39084 -3.50885,-16.87607 -1.25369,-25.92434"
         id="path2810" />
      <path
         style="fill:none;stroke:#000000;stroke-width:1.31373;stroke-linecap:butt;stroke-linejoin:miter;stroke-miterlimit:4;stroke-dasharray:none;stroke-opacity:1"
         d="m 151.69591,297.25215 c 6.50128,-5.53158 15.19871,-17.01088 20.05896,-20.60561"
         id="path2812" />
      <path
         style="fill:none;stroke:#000000;stroke-width:1.12681;stroke-linecap:butt;stroke-linejoin:miter;stroke-miterlimit:4;stroke-dasharray:none;stroke-opacity:1"
         d="m 211.83804,274.68133 c 2.67573,6.96652 3.95591,15.32084 7.17389,21.61695"
         id="path2814" />
      <path
         style="fill:none;stroke:#000000;stroke-width:1.15706;stroke-linecap:butt;stroke-linejoin:miter;stroke-miterlimit:4;stroke-dasharray:none;stroke-opacity:1"
         d="m 258.61946,274.89846 c 11.08095,6.02839 15.86214,17.53564 26.44251,23.55314"
         id="path2816" />
      <path
         style="fill:none;stroke:#000000;stroke-width:1.17452;stroke-linecap:butt;stroke-linejoin:miter;stroke-miterlimit:4;stroke-dasharray:none;stroke-opacity:1"
         d="m 299.58627,273.61925 c 13.48731,0.65928 21.98376,12.15324 26.83241,21.01314"
         id="path2818" />
      <path
         style="fill:none;stroke:#000000;stroke-width:1.07929;stroke-linecap:butt;stroke-linejoin:miter;stroke-miterlimit:4;stroke-dasharray:none;stroke-opacity:1"
         d="m 372.74495,289.87792 c -1.16881,-6.79426 1.11397,-11.8012 7.14184,-15.77123"
         id="path2820" />
      <path
         style="fill:none;stroke:#000000;stroke-width:1.21629;stroke-linecap:butt;stroke-linejoin:miter;stroke-miterlimit:4;stroke-dasharray:none;stroke-opacity:1"
         d="m 412.04453,293.43827 c 10.08046,-4.50732 13.82262,-13.80365 21.31266,-20.1349"
         id="path2822" />
      <path
         style="fill:none;stroke:#000000;stroke-width:1.17336;stroke-linecap:butt;stroke-linejoin:miter;stroke-miterlimit:4;stroke-dasharray:none;stroke-opacity:1"
         d="m 467.58478,274.35511 c 12.29731,4.11351 27.90439,11.65043 38.21619,15.37915 3.11337,2.25819 3.80058,3.42648 6.16388,5.34926"
         id="path2824" />
      <path
         style="fill:none;stroke:#000000;stroke-width:1.32291668;stroke-linecap:butt;stroke-linejoin:miter;stroke-opacity:1;stroke-miterlimit:4;stroke-dasharray:none"
         d="m 482.25089,251.99072 c 0.90488,-13.23823 35.03552,-12.01747 39.28214,-18.38738"
         id="path2826" />
      <path
         style="fill:none;stroke:#000000;stroke-width:1.32291668;stroke-linecap:butt;stroke-linejoin:miter;stroke-opacity:1;stroke-miterlimit:4;stroke-dasharray:none"
         d="m 484.75827,193.06752 c 9.08431,-9.93809 24.50129,2.94458 34.68529,1.67158"
         id="path2828" />
      <path
         style="fill:none;stroke:#000000;stroke-width:1.38147;stroke-linecap:butt;stroke-linejoin:miter;stroke-miterlimit:4;stroke-dasharray:none;stroke-opacity:1"
         d="m 519.02336,173.00855 c 1.18996,-6.10689 -36.01648,-10.23124 -37.36793,-9.61158"
         id="path2830" />
      <path
         style="fill:none;stroke:#000000;stroke-width:1.32291668;stroke-linecap:butt;stroke-linejoin:miter;stroke-opacity:1;stroke-miterlimit:4;stroke-dasharray:none"
         d="m 479.32563,142.92011 c 15.11652,-3.99022 29.65062,-7.1407 45.13266,-5.85053"
         id="path2832" />
      <path
         style="fill:none;stroke:#000000;stroke-width:1.23657;stroke-linecap:butt;stroke-linejoin:miter;stroke-miterlimit:4;stroke-dasharray:none;stroke-opacity:1"
         d="m 476.80591,113.2684 c 12.83906,-6.64275 30.86086,-0.2142 42.20838,-2.11477"
         id="path2834" />
      <path
         style="fill:none;stroke:#000000;stroke-width:1.18994;stroke-linecap:butt;stroke-linejoin:miter;stroke-miterlimit:4;stroke-dasharray:none;stroke-opacity:1"
         d="m 473.45102,83.198771 c 13.07117,-8.88904 34.34702,-4.194883 45.57408,-8.432748"
         id="path2836" />
      <path
         style="fill:none;stroke:#000000;stroke-width:1.25215;stroke-linecap:butt;stroke-linejoin:miter;stroke-miterlimit:4;stroke-dasharray:none;stroke-opacity:1"
         d="m 470.94689,52.670973 c 11.84412,-8.670337 27.41716,-2.944706 40.53797,-2.944706"
         id="path2840" />
    </g>
    <g
       id="g2929">
      <g
         id="g2878">
        <path
           style="fill:#705eb3;stroke:#332e23;stroke-width:1.05833334;stroke-linecap:butt;stroke-linejoin:miter;stroke-opacity:1;fill-opacity:1;stroke-miterlimit:4;stroke-dasharray:none"
           d="m 279.83511,9.4558858 c 2.06849,-0.2954965 19.94602,0.7387412 20.68476,0.7387412 0.73874,0 22.16224,0.738741 24.37844,0.738741 2.21623,0 18.32079,-1.9207268 20.98027,-1.4774822 2.65946,0.4432445 15.21807,0.5909932 18.17301,0.5909932 2.95498,0 12.41089,0.295497 15.66133,0.886489 3.25046,0.590993 10.49012,0.738741 13.88832,1.329734 3.3982,0.590993 14.92258,2.659468 16.99104,2.807216 2.06849,0.147748 15.95681,2.51172 17.13881,2.659468 1.18197,0.147748 15.21807,2.807217 19.35501,2.659468 4.13695,-0.147748 11.37661,0.886489 11.37661,0.886489 l -1.77297,10.194628 c 0,0 -11.67212,-1.034238 -15.36581,-1.920727 -3.69372,-0.886489 -11.08112,-1.772979 -14.77484,-2.511722 -3.69369,-0.73874 -20.2415,-2.36397 -21.42347,-2.36397 -1.182,0 -21.27576,-2.659468 -22.45773,-2.954964 -1.182,-0.295497 -6.64869,-1.329734 -8.86492,-1.625231 -2.2162,-0.295496 -8.86489,-0.590993 -11.37661,-0.738741 -2.51171,-0.147748 -3.9892,0 -8.12614,-0.443244 -4.13695,-0.443245 -7.83066,-1.034238 -10.63787,-1.329734 -2.80723,-0.295497 -12.41086,0.147748 -13.74058,0.295496 -1.32974,0.147748 -9.01266,0.886489 -10.34238,0.886489 -1.32974,0 -10.04689,-1.034237 -12.70635,-1.034237 -2.65945,0 -5.90991,-0.295496 -7.83066,-0.295496 -1.92071,0 -7.53515,-0.147749 -8.5694,-0.147749 -1.03423,0 -7.09189,-0.886489 -7.83064,-1.034237 -0.73874,-0.147748 -2.80723,-6.7964182 -2.80723,-6.7964182 z"
           id="path2854" />
        <path
           style="fill:#705eb3;fill-opacity:1;stroke:#332e23;stroke-width:1.05833334;stroke-linecap:butt;stroke-linejoin:miter;stroke-opacity:1;stroke-miterlimit:4;stroke-dasharray:none"
           d="m 279.83511,22.900973 c 2.06849,-0.295496 19.94602,0.738741 20.68476,0.738741 0.73874,0 22.16224,0.738741 24.37844,0.738741 2.21623,0 18.32079,-1.920726 20.98027,-1.477482 2.65946,0.443245 15.21807,0.590993 18.17301,0.590993 2.95498,0 12.41089,0.295497 15.66133,0.886489 3.25046,0.590993 10.49012,0.738741 13.88832,1.329734 3.3982,0.590993 14.92258,2.659468 16.99104,2.807216 2.06849,0.147748 15.95681,2.51172 17.13881,2.659468 1.18197,0.147748 15.21807,2.807217 19.35501,2.659468 4.13695,-0.147748 11.37661,0.886489 11.37661,0.886489 l -1.77297,10.194628 c 0,0 -11.67212,-1.034238 -15.36581,-1.920727 -3.69372,-0.886489 -11.08112,-1.772979 -14.77484,-2.511722 -3.69369,-0.73874 -20.2415,-2.36397 -21.42347,-2.36397 -1.182,0 -21.27576,-2.659468 -22.45773,-2.954964 -1.182,-0.295497 -6.64869,-1.329734 -8.86492,-1.625231 -2.2162,-0.295496 -8.86489,-0.590993 -11.37661,-0.738741 -2.51171,-0.147748 -3.9892,0 -8.12614,-0.443244 -4.13695,-0.443245 -7.83066,-1.034238 -10.63787,-1.329734 -2.80723,-0.295497 -12.41086,0.147748 -13.74058,0.295496 -1.32974,0.147748 -9.01266,0.886489 -10.34238,0.886489 -1.32974,0 -10.04689,-1.034237 -12.70635,-1.034237 -2.65945,0 -5.90991,-0.295496 -7.83066,-0.295496 -1.92071,0 -7.53515,-0.147749 -8.5694,-0.147749 -1.03423,0 -7.09189,-0.886489 -7.83064,-1.034237 -0.73874,-0.147748 -2.80723,-6.796418 -2.80723,-6.796418 z"
           id="path2856" />
        <path
           style="fill:#705eb3;stroke:#332e23;stroke-width:1.05833334;stroke-linecap:butt;stroke-linejoin:miter;stroke-opacity:1;fill-opacity:1;stroke-miterlimit:4;stroke-dasharray:none"
           d="m 287.96126,27.776665 c 0.29552,-1.477483 1.32975,-8.421649 2.21623,-10.342375 0.88649,-1.920727 2.21623,-12.558599 2.51172,-13.1495917 0.29551,-0.5909929 4.5802,-2.0684751 1.62523,-2.6594679 -2.95495,-0.5909929 -9.30812,-1.03423755 -9.30812,-1.03423755 0,0 -5.17121,8.86489315 -5.17121,8.86489315 0,0 -0.73874,10.342375 0,13.445087 0.73875,3.102713 -0.591,6.500922 0.88649,6.648671 1.47749,0.147748 7.23966,-1.772979 7.23966,-1.772979 z"
           id="path2858" />
        <path
           style="fill:#705eb3;stroke:#332e23;stroke-width:1.05833334;stroke-linecap:butt;stroke-linejoin:miter;stroke-opacity:1;fill-opacity:1;stroke-miterlimit:4;stroke-dasharray:none"
           d="m 303.72403,1.2625941 c 0,2.1043234 -2.94606,9.3993109 -2.94606,10.1007519 0,0.701442 -0.28059,9.5396 -0.14028,10.241041 0.14028,0.701441 0.28056,7.435278 0.28056,7.435278 0,0 9.39933,1.402881 11.08276,1.402881 1.68347,0 5.19068,1.402882 5.19068,-0.841729 0,-2.244611 1.96403,-5.751818 1.96403,-9.118736 0,-3.366917 -0.56116,-6.032393 0.28059,-8.136717 0.84172,-2.104323 4.7698,-6.3129702 4.7698,-6.3129702 0,0 -6.59355,-4.0683586 -7.71586,-4.6295115 -1.12231,-0.56115292 -12.76622,-0.1402882 -12.76622,-0.1402882 z"
           id="path2860" />
        <path
           style="fill:#705eb3;stroke:#332e23;stroke-width:1.05833334;stroke-linecap:butt;stroke-linejoin:miter;stroke-opacity:1;fill-opacity:1;stroke-miterlimit:4;stroke-dasharray:none"
           d="m 345.10904,1.1223058 -6.45327,2.3848998 0.14031,6.1726823 c 0,0 -2.52521,7.0144111 -2.10433,10.3813291 0.42087,3.366917 -1.2626,9.679887 -1.12231,10.521617 0.1403,0.841729 5.05039,2.665476 6.87414,3.086341 1.82374,0.420864 8.1367,0.841729 8.69786,0.841729 0.56115,0 3.08633,-4.068358 3.64749,-5.611529 0.56115,-1.543169 4.62952,-19.079199 4.62952,-19.079199 0,0 0.70144,-6.5935467 -0.14028,-6.5935467 -0.84175,0 -3.6475,-4.3489351 -5.61155,-4.6295116 -1.96403,-0.2805765 -8.55758,2.5251881 -8.55758,2.5251881 z"
           id="path2862" />
        <path
           style="fill:#705eb3;fill-opacity:1;stroke:#332e23;stroke-width:1.05833;stroke-linecap:butt;stroke-linejoin:miter;stroke-miterlimit:4;stroke-dasharray:none;stroke-opacity:1"
           d="m 386.91493,5.8921056 -6.45327,2.3848998 0.14031,6.1726816 c 0,0 -2.52521,7.014411 -2.10433,10.381329 0.42087,3.366917 -1.2626,9.679887 -1.12231,10.521617 0.1403,0.841729 5.05039,2.665476 6.87414,3.086341 1.82374,0.420864 8.1367,0.841729 8.69786,0.841729 0.56115,0 3.08633,-4.068358 3.64749,-5.611529 0.56115,-1.543169 4.62952,-19.079199 4.62952,-19.079199 0,0 0.70144,-6.5935459 -0.14028,-6.5935459 -0.84175,0 -3.6475,-4.3489352 -5.61155,-4.6295117 -1.96403,-0.2805765 -8.55758,2.5251882 -8.55758,2.5251882 z"
           id="path2864" />
        <path
           style="fill:#705eb3;fill-opacity:1;stroke:#332e23;stroke-width:1.05833;stroke-linecap:butt;stroke-linejoin:miter;stroke-miterlimit:4;stroke-dasharray:none;stroke-opacity:1"
           d="m 430.12371,8.6978701 -6.45327,2.3848999 0.14031,6.172682 c 0,0 -2.52521,7.014411 -2.10433,10.381329 0.42087,3.366917 -1.2626,9.679887 -1.12231,10.521617 0.1403,0.841729 5.05039,2.665476 6.87414,3.086341 1.82374,0.420864 8.1367,0.841729 8.69786,0.841729 0.56115,0 3.08633,-4.068358 3.64749,-5.611529 0.56115,-1.543169 4.62952,-19.079199 4.62952,-19.079199 0,0 0.70144,-6.593546 -0.14028,-6.593546 -0.84175,0 -3.6475,-4.3489356 -5.61155,-4.6295121 -1.96403,-0.2805765 -8.55758,2.5251882 -8.55758,2.5251882 z"
           id="path2866" />
        <path
           style="fill:#705eb3;fill-opacity:1;stroke:#332e23;stroke-width:1.39663;stroke-linecap:butt;stroke-linejoin:miter;stroke-miterlimit:4;stroke-dasharray:none;stroke-opacity:1"
           d="m 460.47715,9.079557 c 0,2.71484 -3.97677,12.126288 -3.97677,13.031235 0,0.904948 -0.37876,12.307279 -0.18936,13.212226 0.18936,0.904947 0.37872,9.59244 0.37872,9.59244 0,0 12.68779,1.809891 14.96018,1.809891 2.27246,0 7.0067,1.809894 7.0067,-1.085935 0,-2.895829 2.65117,-7.420566 2.65117,-11.764311 0,-4.343745 -0.75749,-7.782543 0.37876,-10.497385 1.1362,-2.71484 6.43857,-8.144522 6.43857,-8.144522 0,0 -8.90038,-5.248692 -10.41534,-5.97265 -1.51497,-0.723958 -17.23263,-0.180989 -17.23263,-0.180989 z"
           id="path2868" />
      </g>
      <path
         id="path2892"
         style="opacity:0.509677;fill:#000000;fill-opacity:1;stroke:none;stroke-width:0.78188;stroke-linecap:butt;stroke-linejoin:miter;stroke-miterlimit:4;stroke-dasharray:none;stroke-opacity:1"
         d="m 352.7188,63.910338 c -2.07158,-0.287661 -6.84532,-2.354968 -6.84532,-2.354968 l -5.37185,-2.087272 1.07516,-3.663307 c 0,0 -0.007,-0.02263 -0.007,-0.02482 -4.89755,-0.846489 -10.9186,-2.012194 -12.16005,-2.156239 -0.48926,-0.05677 -2.04491,-0.209193 -4.10737,-0.40649 0.95276,1.426691 2.7367,3.255316 2.7367,3.255316 0,0 -6.49048,1.743874 -7.57502,1.962428 -1.08456,0.218554 -11.37501,-1.233899 -11.37501,-1.233899 0.25987,-1.005469 -0.63996,-4.1637 -0.95531,-5.603596 -0.0769,-0.0076 -0.4938,-0.04651 -0.51883,-0.04942 -0.30177,-0.03501 -3.94036,-0.321832 -7.86587,-0.650078 -0.0331,1.665929 -0.088,3.186418 -0.008,3.363685 0.17179,0.382642 3.75481,1.705029 1.03582,1.752249 -2.71898,0.04722 -8.43729,-0.344043 -8.43729,-0.344043 l -3.23363,-5.815939 c 0,0 0.9359,-6.238843 2.07077,-8.011381 1.13486,-1.772537 0.47544,-3.934631 1.81219,-3.870205 0.30875,0.01488 0.80806,0.121696 1.38688,0.273191 0.14183,-0.102101 0.25984,-0.161583 0.34415,-0.163046 0.67974,-0.0118 6.20347,0.08517 7.12327,0.191897 0.91977,0.106723 5.93579,0.59803 7.64394,0.796227 1.70823,0.198205 4.64439,0.357479 7.00953,0.631908 2.36516,0.27443 10.27727,0.557855 11.45987,0.695073 1.18256,0.137213 7.9017,1.370075 9.06153,1.595329 0.55926,0.108619 2.82621,0.4572 5.3014,0.801291 1.19352,-0.426319 4.7614,-0.85419 6.19607,-0.907422 1.68675,-0.06258 7.3657,0.338326 7.86476,0.39623 0.25436,0.02951 0.79902,0.742184 1.30728,1.562692 0.38652,0.01444 0.77508,0.02951 1.17039,0.04668 3.74742,0.162786 5.03868,0.403201 7.29518,0.574347 2.25652,0.171149 8.21491,0.681325 10.23138,0.733943 0.79596,0.02077 2.07659,0.02191 3.38269,0.01635 0.006,-0.351372 0.0208,-0.627106 0.0738,-0.728504 0.25443,-0.487071 4.90198,-1.067273 6.58875,-1.129855 1.68673,-0.06258 7.36566,0.33832 7.86472,0.396226 0.26116,0.0303 0.82776,0.781583 1.34731,1.629499 4.51891,0.12467 8.81208,0.261943 9.30476,0.319107 0.88611,0.102816 11.63839,0.642583 17.03634,0.774726 1.25893,-0.175138 2.5661,-0.305045 3.30622,-0.332505 1.68675,-0.06257 7.36576,0.338014 7.86482,0.395919 0.0271,0.0032 0.0584,0.0155 0.0917,0.03348 1.76555,0.01415 3.41888,0.01119 4.64445,-0.04149 3.42147,-0.147065 13.96091,0.441354 13.96091,0.441354 0,0 11.5627,0.230643 13.58361,0.46513 2.02101,0.234499 6.51014,-0.355217 6.06414,1.370276 -0.44601,1.725498 1.21479,4.695045 0.54577,7.283289 -0.66899,2.588244 -1.8723,4.559205 -1.27991,6.294109 0.59232,1.734897 4.47202,5.517203 4.47202,5.517203 0,0 -8.7239,2.209088 -10.18274,2.484133 -1.45881,0.275045 -15.35343,-1.670465 -15.35343,-1.670465 0.35079,-1.357173 -1.05807,-5.800473 -1.4398,-7.518319 -2.16128,-0.07014 -6.15368,-0.23978 -8.72792,-0.602311 -0.69984,-0.09856 -1.74127,-0.172902 -2.97019,-0.229506 0.0912,1.04601 0.14974,1.739186 0.14974,1.739186 0,0 -0.39154,4.001425 -1.14013,3.914568 -0.74857,-0.08686 -3.9136,2.21475 -5.70351,2.179262 -1.78991,-0.03548 -7.22177,-2.387548 -7.22177,-2.387548 l -5.37191,-2.086961 1.04909,-3.573407 c -4.22279,-0.02676 -10.7595,-0.06437 -12.06592,-0.152341 -1.0458,-0.07042 -4.79979,-0.08602 -8.4743,-0.08732 -0.14042,1.101419 -0.50031,3.387485 -1.07102,3.321267 -0.74862,-0.08686 -3.91372,2.215053 -5.70362,2.179568 -1.78991,-0.03548 -7.2217,-2.387856 -7.2217,-2.387856 l -5.37189,-2.08696 0.48516,-1.651569 c -0.2635,-0.0059 -0.51558,-0.0097 -0.74197,-0.0084 -2.98176,0.01673 -11.43654,-0.783074 -14.06451,-1.087998 -0.77708,-0.09016 -2.33843,-0.26194 -4.1652,-0.455697 3.4e-4,0.0058 0.01,0.112767 0.01,0.112767 0,0 -0.39147,4.001116 -1.14005,3.914259 -0.74859,-0.08686 -3.9137,2.215057 -5.70362,2.179569 -0.11186,-0.0022 -0.23832,-0.0134 -0.37644,-0.03258 z M 299.5673,46.270814 c 0.0632,0.005 0.16181,0.0099 0.20536,0.01494 0.91976,0.106724 5.9358,0.598029 7.64395,0.796226 0.41092,0.04768 0.89562,0.09322 1.42357,0.138535 0.27495,-1.20338 0.53746,-2.285599 0.63737,-2.458817 0.0717,-0.124234 0.23802,-0.619912 0.42486,-1.204088 -0.0197,-0.002 -0.20578,-0.01946 -0.2162,-0.02066 -0.37168,-0.04312 -5.65751,-0.455625 -10.51658,-0.87582 0.0244,1.387507 0.10514,2.858325 0.36328,3.506087 0.012,0.03055 0.0232,0.06678 0.0344,0.103566 z m 41.42096,4.635785 c 0.0355,-0.567357 0.12843,-1.092358 0.31609,-1.504998 0.24663,-0.542132 0.38292,-1.235839 0.45957,-1.964714 -4.45414,-0.792804 -9.19558,-1.698415 -10.28272,-1.824559 -0.59682,-0.06925 -2.91632,-0.29264 -5.67518,-0.554785 0.11469,0.758563 0.15981,1.540791 -0.0322,2.283877 -0.0932,0.360267 -0.19995,0.700211 -0.30829,1.031446 0.17462,0.01278 0.32581,0.02512 0.42048,0.0361 1.18257,0.137213 7.9017,1.370076 9.06154,1.595328 0.61512,0.119467 3.28715,0.527381 6.04071,0.9023 z m 18.43716,1.149442 c 1.89793,0.140148 3.03394,0.298958 4.65719,0.422078 2.25654,0.171149 8.21491,0.681325 10.23139,0.733943 1.04377,0.02724 2.87936,0.02566 4.5722,0.01102 -0.0196,-0.717045 0.0286,-1.413045 0.19581,-1.977238 -3.59499,-0.128228 -10.57147,-0.79275 -12.91689,-1.06489 -1.15815,-0.13438 -3.99085,-0.444199 -6.99284,-0.749537 0.0833,0.834889 0.16881,1.714959 0.25318,2.624623 z m 37.91199,1.449116 c 2.88151,0.08792 5.19008,0.169294 5.53854,0.209729 0.78298,0.09085 9.27866,0.523544 14.97151,0.714334 0.0533,-0.281751 0.12787,-0.542193 0.23082,-0.768631 0.19693,-0.432939 0.32214,-0.964172 0.40487,-1.530855 -4.08635,-0.02645 -9.02951,-0.06378 -10.15403,-0.139505 -1.30678,-0.088 -6.84657,-0.09217 -11.1428,-0.08677 0.0506,0.524695 0.1012,1.062389 0.15117,1.601719 z m 38.69421,1.034338 c 3.41041,-0.111724 12.36904,0.371756 13.38035,0.427277 0.16984,-0.726136 0.32763,-1.369899 0.44795,-1.793215 -2.23858,-0.07894 -5.8628,-0.249839 -8.25617,-0.586897 -1.19362,-0.168099 -3.37558,-0.266215 -5.80532,-0.324095 0.0733,0.674962 0.15153,1.434229 0.23323,2.276933 z" />
    </g>
    <g
       id="g3543"
       transform="matrix(3.0153287,0,0,3.0153287,-1497.2823,-537.8111)">
      <g
         id="g3558"
         transform="translate(-123.83595,8.8938799)">
        <g
           id="g3565"
           transform="translate(-80.127717,-54.170851)"
           inkscape:export-filename="D:\Program Files (x86)\Unity\Projects\PVZ\Assets\Sprites\Sun.png"
           inkscape:export-xdpi="96"
           inkscape:export-ydpi="96">
          <circle
             style="opacity:1;fill:url(#radialGradient3553);fill-opacity:1;stroke:none;stroke-width:0.264583;stroke-miterlimit:4;stroke-dasharray:none;stroke-opacity:1"
             id="path3545"
             cx="687.69879"
             cy="211.54092"
             r="6.8059554" />
          <path
             style="opacity:1;fill:url(#radialGradient3567);fill-opacity:1;stroke:none;stroke-width:0.264583px;stroke-linecap:butt;stroke-linejoin:miter;stroke-opacity:1"
             d="m 686.51529,215.84094 -2.26867,1.5597 -0.0709,-2.9776 -3.40299,0.0354 c 0,0 2.09142,-1.87872 2.12688,-2.05596 0.0354,-0.17724 -2.62313,-2.41044 -2.62313,-2.41044 l 3.54475,-0.42538 -1.55969,-3.75745 3.26117,1.63059 1.24069,-3.93469 1.94961,3.7929 2.72949,-2.87126 -0.88619,4.11193 4.00558,-0.38992 -2.55223,2.90671 2.9776,2.02052 -3.50933,0.53171 1.02798,3.7929 -3.11938,-2.02052 c 0,0 -0.56716,3.82836 -0.77986,3.47388 -0.21267,-0.35448 -2.0914,-3.01306 -2.0914,-3.01306 z"
             id="path3521" />
          <ellipse
             style="opacity:1;fill:url(#radialGradient3560);fill-opacity:1;stroke:#e4d958;stroke-width:0.264583;stroke-miterlimit:4;stroke-dasharray:none;stroke-opacity:1"
             id="path3523"
             cx="687.8446"
             cy="211.32137"
             rx="2.2154801"
             ry="2.3218231" />
        </g>
      </g>
    </g>
    <g
       id="g3602"
       inkscape:export-filename="D:\Program Files (x86)\Unity\Projects\PVZ\Assets\Sprites\Seed Bar.png"
       inkscape:export-xdpi="96"
       inkscape:export-ydpi="96">
      <g
         id="g3505"
         transform="translate(7.940281,6.8059551)"
         inkscape:export-filename="D:\Program Files (x86)\Unity\Projects\PVZ\Assets\Sprites\Seed Bar.png"
         inkscape:export-xdpi="96"
         inkscape:export-ydpi="96">
        <rect
           style="opacity:1;fill:#6e3112;fill-opacity:1;stroke:#994623;stroke-width:2.40812;stroke-miterlimit:4;stroke-dasharray:none;stroke-opacity:1"
           id="rect3448"
           width="46.961861"
           height="46.339241"
           x="28.240881"
           y="-68.711617"
           inkscape:export-filename="D:\Program Files (x86)\Unity\Projects\PVZ\Assets\Sprites\Seed Bar.png"
           inkscape:export-xdpi="96"
           inkscape:export-ydpi="96" />
        <g
           id="g3493">
          <rect
             style="opacity:1;fill:#6e3112;fill-opacity:1;stroke:#994623;stroke-width:2.46171;stroke-miterlimit:4;stroke-dasharray:none;stroke-opacity:1"
             id="rect3446"
             width="325.0755"
             height="46.285706"
             x="74.431335"
             y="-68.666534"
             inkscape:export-filename="D:\Program Files (x86)\Unity\Projects\PVZ\Assets\Sprites\Seed Bar.png"
             inkscape:export-xdpi="96"
             inkscape:export-ydpi="96" />
          <g
             id="g3475"
             transform="matrix(1.254717,0,0,1.254717,-0.27776084,-70.182784)"
             inkscape:export-filename="D:\Program Files (x86)\Unity\Projects\PVZ\Assets\Sprites\Seed Bar.png"
             inkscape:export-xdpi="96"
             inkscape:export-ydpi="96">
            <ellipse
               style="opacity:1;fill:#6e3112;fill-opacity:1;stroke:#994623;stroke-width:1.77528;stroke-miterlimit:4;stroke-dasharray:none;stroke-opacity:1"
               id="path3450"
               cx="41.207348"
               cy="14.33735"
               rx="11.363467"
               ry="11.062683" />
          </g>
          <rect
             style="opacity:1;fill:#fbf6c2;fill-opacity:1;stroke:#6d3219;stroke-width:1.05833;stroke-miterlimit:4;stroke-dasharray:none;stroke-opacity:1"
             id="rect3477"
             width="36.582008"
             height="14.179073"
             x="32.044704"
             y="-36.36932"
             inkscape:export-filename="D:\Program Files (x86)\Unity\Projects\PVZ\Assets\Sprites\Seed Bar.png"
             inkscape:export-xdpi="96"
             inkscape:export-ydpi="96" />
          <rect
             style="opacity:1;fill:#73ecea;fill-opacity:0.493976;stroke:none;stroke-width:1.05833;stroke-miterlimit:4;stroke-dasharray:none;stroke-opacity:1"
             id="rect3479"
             width="7.3731184"
             height="3.6865592"
             x="44.654362"
             y="-10.766233"
             transform="rotate(-36.528854)"
             inkscape:export-filename="D:\Program Files (x86)\Unity\Projects\PVZ\Assets\Sprites\Seed Bar.png"
             inkscape:export-xdpi="96"
             inkscape:export-ydpi="96" />
          <rect
             style="opacity:1;fill:#73ecea;fill-opacity:0.493976;stroke:none;stroke-width:0.794504;stroke-miterlimit:4;stroke-dasharray:none;stroke-opacity:1"
             id="rect3481"
             width="5.5348411"
             height="2.7676885"
             x="20.688896"
             y="-74.230225"
             transform="matrix(0.7062589,0.70795365,-0.70006296,0.71408113,0,0)" />
        </g>
      </g>
      <g
         id="g3579"
         transform="matrix(1.5706954,0,0,1.5706954,-700.69881,-306.45615)">
        <g
           id="g3577"
           transform="translate(-123.83595,8.8938799)">
          <g
             id="g3575"
             transform="translate(-80.127717,-54.170851)"
             inkscape:export-filename="D:\Program Files (x86)\Unity\Projects\PVZ\Assets\Sprites\Sun.png"
             inkscape:export-xdpi="96"
             inkscape:export-ydpi="96">
            <circle
               style="opacity:1;fill:url(#radialGradient3581);fill-opacity:1;stroke:none;stroke-width:0.264583;stroke-miterlimit:4;stroke-dasharray:none;stroke-opacity:1"
               id="circle3569"
               cx="687.69879"
               cy="211.54092"
               r="6.8059554" />
            <path
               style="opacity:1;fill:url(#radialGradient3583);fill-opacity:1;stroke:none;stroke-width:0.264583px;stroke-linecap:butt;stroke-linejoin:miter;stroke-opacity:1"
               d="m 686.51529,215.84094 -2.26867,1.5597 -0.0709,-2.9776 -3.40299,0.0354 c 0,0 2.09142,-1.87872 2.12688,-2.05596 0.0354,-0.17724 -2.62313,-2.41044 -2.62313,-2.41044 l 3.54475,-0.42538 -1.55969,-3.75745 3.26117,1.63059 1.24069,-3.93469 1.94961,3.7929 2.72949,-2.87126 -0.88619,4.11193 4.00558,-0.38992 -2.55223,2.90671 2.9776,2.02052 -3.50933,0.53171 1.02798,3.7929 -3.11938,-2.02052 c 0,0 -0.56716,3.82836 -0.77986,3.47388 -0.21267,-0.35448 -2.0914,-3.01306 -2.0914,-3.01306 z"
               id="path3571" />
            <ellipse
               style="opacity:1;fill:url(#radialGradient3585);fill-opacity:1;stroke:#e4d958;stroke-width:0.264583;stroke-miterlimit:4;stroke-dasharray:none;stroke-opacity:1"
               id="ellipse3573"
               cx="687.8446"
               cy="211.32137"
               rx="2.2154801"
               ry="2.3218231" />
          </g>
        </g>
      </g>
    </g>
    <g
       id="g3669"
       transform="translate(-47.225971,-48.554619)"
       inkscape:export-filename="D:\Program Files (x86)\Unity\Projects\PVZ\Assets\Sprites\Card.png"
       inkscape:export-xdpi="96"
       inkscape:export-ydpi="96">
      <rect
         style="opacity:1;fill:#d7f7e4;fill-opacity:1;stroke:#000000;stroke-width:1.32292;stroke-miterlimit:4;stroke-dasharray:none;stroke-opacity:1"
         id="rect3618"
         width="30.379139"
         height="41.909176"
         x="84.921227"
         y="-59.956192"
         ry="1.7044402" />
      <g
         id="g3648"
         transform="matrix(0.54581664,0,0,0.54581664,-155.00496,-114.06571)">
        <g
           id="g3646"
           transform="translate(-123.83595,8.8938799)">
          <g
             id="g3644"
             transform="translate(-80.127717,-54.170851)"
             inkscape:export-filename="D:\Program Files (x86)\Unity\Projects\PVZ\Assets\Sprites\Sun.png"
             inkscape:export-xdpi="96"
             inkscape:export-ydpi="96">
            <circle
               style="opacity:1;fill:url(#radialGradient3650);fill-opacity:1;stroke:none;stroke-width:0.264583;stroke-miterlimit:4;stroke-dasharray:none;stroke-opacity:1"
               id="circle3638"
               cx="687.69879"
               cy="211.54092"
               r="6.8059554" />
            <path
               style="opacity:1;fill:url(#radialGradient3652);fill-opacity:1;stroke:none;stroke-width:0.264583px;stroke-linecap:butt;stroke-linejoin:miter;stroke-opacity:1"
               d="m 686.51529,215.84094 -2.26867,1.5597 -0.0709,-2.9776 -3.40299,0.0354 c 0,0 2.09142,-1.87872 2.12688,-2.05596 0.0354,-0.17724 -2.62313,-2.41044 -2.62313,-2.41044 l 3.54475,-0.42538 -1.55969,-3.75745 3.26117,1.63059 1.24069,-3.93469 1.94961,3.7929 2.72949,-2.87126 -0.88619,4.11193 4.00558,-0.38992 -2.55223,2.90671 2.9776,2.02052 -3.50933,0.53171 1.02798,3.7929 -3.11938,-2.02052 c 0,0 -0.56716,3.82836 -0.77986,3.47388 -0.21267,-0.35448 -2.0914,-3.01306 -2.0914,-3.01306 z"
               id="path3640" />
            <ellipse
               style="opacity:1;fill:url(#radialGradient3654);fill-opacity:1;stroke:#e4d958;stroke-width:0.264583;stroke-miterlimit:4;stroke-dasharray:none;stroke-opacity:1"
               id="ellipse3642"
               cx="687.8446"
               cy="211.32137"
               rx="2.2154801"
               ry="2.3218231" />
          </g>
        </g>
      </g>
      <rect
         style="opacity:1;fill:#d1eeb5;fill-opacity:1;stroke:#000000;stroke-width:0.279082;stroke-miterlimit:4;stroke-dasharray:none;stroke-opacity:1"
         id="rect3656"
         width="25.451845"
         height="29.131277"
         x="87.334747"
         y="-57.712967"
         ry="1.89744" />
      <rect
         style="opacity:1;fill:none;fill-opacity:0;stroke:#000000;stroke-width:0.264583;stroke-miterlimit:4;stroke-dasharray:none;stroke-opacity:1"
         id="rect3658"
         width="27.140604"
         height="8.4110518"
         x="86.640755"
         y="-27.77655"
         ry="1.9065053" />
    </g>
    <g
       id="g3698"
       transform="translate(37.698207,54.542086)"
       inkscape:export-filename="D:\Program Files (x86)\Unity\Projects\PVZ\Assets\Sprites\GameProgressBar.png"
       inkscape:export-xdpi="96"
       inkscape:export-ydpi="96">
      <rect
         style="opacity:1;fill:#dedede;fill-opacity:1;stroke:none;stroke-width:0.278652;stroke-miterlimit:4;stroke-dasharray:none;stroke-opacity:1"
         id="rect3694"
         width="81.598549"
         height="11.61623"
         x="366.96298"
         y="258.88144"
         ry="5.8081145" />
      <path
         id="rect3687"
         style="opacity:1;fill:#7e7e7e;fill-opacity:1;stroke:#000000;stroke-width:0.715215;stroke-miterlimit:4;stroke-dasharray:none;stroke-opacity:1"
         d="m 1398.9785,973.73242 c -8.8586,0 -15.9902,7.13155 -15.9902,15.99024 v 20.59964 c 0,8.8586 7.1316,15.9902 15.9902,15.9902 h 283.4903 c 8.8586,0 15.9902,-7.1316 15.9902,-15.9902 v -20.59964 c 0,-8.85869 -7.1316,-15.99024 -15.9902,-15.99024 z m 4.2793,7.65039 h 274.9317 c 6.2278,0 11.2421,5.01432 11.2421,11.24219 v 14.4805 c 0,6.2278 -5.0143,11.2422 -11.2421,11.2422 h -274.9317 c -6.2279,0 -11.2422,-5.0144 -11.2422,-11.2422 V 992.625 c 0,-6.22787 5.0143,-11.24219 11.2422,-11.24219 z"
         transform="scale(0.26458334)" />
    </g>
    <g
       id="g1122"
       transform="translate(501.37203,4.5373035)"
       inkscape:export-filename="D:\Program Files (x86)\Unity\Projects\PVZ\Assets\Sprites\Seed Selector.png"
       inkscape:export-xdpi="96"
       inkscape:export-ydpi="96">
      <g
         id="g1026"
         inkscape:export-filename="D:\Program Files (x86)\Unity\Projects\PVZ\Assets\Sprites\Seed Bar.png"
         inkscape:export-xdpi="96"
         inkscape:export-ydpi="96"
         transform="matrix(1.0098506,0,0,0.99995124,552.14427,-2.2618035)"
         style="stroke-width:2.46168;stroke-miterlimit:4;stroke-dasharray:none">
        <rect
           style="fill:#6e3112;fill-opacity:1;stroke:#994623;stroke-width:2.46168;stroke-miterlimit:4;stroke-dasharray:none;stroke-opacity:1"
           id="rect998"
           width="321.88055"
           height="246.82149"
           x="-459.01642"
           y="17.04063"
           inkscape:export-filename="D:\Program Files (x86)\Unity\Projects\PVZ\Assets\Sprites\Seed Bar.png"
           inkscape:export-xdpi="96"
           inkscape:export-ydpi="96" />
      </g>
      <rect
         style="fill:#6e3112;fill-opacity:1;stroke:#994623;stroke-width:2.46168;stroke-miterlimit:4;stroke-dasharray:none;stroke-opacity:1"
         id="rect1054"
         width="325.0755"
         height="46.285706"
         x="88.594086"
         y="13.174412"
         inkscape:export-filename="D:\Program Files (x86)\Unity\Projects\PVZ\Assets\Sprites\Seed Bar.png"
         inkscape:export-xdpi="96"
         inkscape:export-ydpi="96" />
    </g>
    <path
       sodipodi:type="star"
       style="fill:#ffffff;fill-opacity:1;stroke:none;stroke-width:0.422842;stroke-miterlimit:4;stroke-dasharray:none;stroke-opacity:1"
       id="path1014"
       sodipodi:sides="5"
       sodipodi:cx="50.118655"
       sodipodi:cy="11.357691"
       sodipodi:r1="4.3622584"
       sodipodi:r2="2.1811292"
       sodipodi:arg1="0.52359878"
       sodipodi:arg2="1.1519173"
       inkscape:flatsided="false"
       inkscape:rounded="0"
       inkscape:randomized="0"
       d="m 53.896483,13.53882 -2.890682,-0.188569 -1.794109,2.274372 -0.713931,-2.807472 -2.717466,-1.00348 2.449448,-1.546545 0.114623,-2.8945566 2.227772,1.8516551 2.788308,-0.7854543 -1.072609,2.6909308 z"
       inkscape:transform-center-x="2.0273893e-06"
       inkscape:transform-center-y="-1.0905655" />
    <path
       sodipodi:type="star"
       style="fill:#ffffff;fill-opacity:1;stroke:none;stroke-width:0.422842;stroke-miterlimit:4;stroke-dasharray:none;stroke-opacity:1"
       id="path1016"
       sodipodi:sides="5"
       sodipodi:cx="90.624177"
       sodipodi:cy="26.196347"
       sodipodi:r1="4.3622584"
       sodipodi:r2="2.1811292"
       sodipodi:arg1="0.52359878"
       sodipodi:arg2="1.1519173"
       inkscape:flatsided="false"
       inkscape:rounded="0"
       inkscape:randomized="0"
       d="m 94.402003,28.377476 -2.890682,-0.188569 -1.79411,2.274372 -0.71393,-2.807472 -2.717467,-1.003481 2.449449,-1.546544 0.114623,-2.894557 2.227772,1.851655 2.788308,-0.785454 -1.072609,2.69093 z"
       inkscape:transform-center-x="2.0273893e-06"
       inkscape:transform-center-y="-1.0905655" />
    <path
       sodipodi:type="star"
       style="fill:#ffffff;fill-opacity:1;stroke:none;stroke-width:0.422842;stroke-miterlimit:4;stroke-dasharray:none;stroke-opacity:1"
       id="path1018"
       sodipodi:sides="5"
       sodipodi:cx="140.35373"
       sodipodi:cy="11.35769"
       sodipodi:r1="4.3622584"
       sodipodi:r2="2.1811292"
       sodipodi:arg1="0.52359878"
       sodipodi:arg2="1.1519173"
       inkscape:flatsided="false"
       inkscape:rounded="0"
       inkscape:randomized="0"
       d="m 144.13156,13.538819 -2.89069,-0.188568 -1.79411,2.274371 -0.71393,-2.807472 -2.71746,-1.00348 2.44945,-1.546545 0.11462,-2.8945565 2.22777,1.851655 2.78831,-0.7854543 -1.07261,2.6909308 z"
       inkscape:transform-center-x="2.0273893e-06"
       inkscape:transform-center-y="-1.0905655" />
    <path
       sodipodi:type="star"
       style="fill:#ffffff;fill-opacity:1;stroke:none;stroke-width:0.422842;stroke-miterlimit:4;stroke-dasharray:none;stroke-opacity:1"
       id="path1020"
       sodipodi:sides="5"
       sodipodi:cx="174.84358"
       sodipodi:cy="21.383809"
       sodipodi:r1="4.3622584"
       sodipodi:r2="2.1811292"
       sodipodi:arg1="0.52359878"
       sodipodi:arg2="1.1519173"
       inkscape:flatsided="false"
       inkscape:rounded="0"
       inkscape:randomized="0"
       d="m 178.62141,23.564937 -2.89068,-0.188568 -1.79411,2.274372 -0.71393,-2.807473 -2.71747,-1.00348 2.44945,-1.546544 0.11462,-2.894557 2.22777,1.851655 2.78831,-0.785454 -1.07261,2.69093 z"
       inkscape:transform-center-x="2.0273893e-06"
       inkscape:transform-center-y="-1.0905655" />
    <path
       sodipodi:type="star"
       style="fill:#ffffff;fill-opacity:1;stroke:none;stroke-width:0.422842;stroke-miterlimit:4;stroke-dasharray:none;stroke-opacity:1"
       id="path1022"
       sodipodi:sides="5"
       sodipodi:cx="249.03686"
       sodipodi:cy="21.383808"
       sodipodi:r1="4.3622584"
       sodipodi:r2="2.1811292"
       sodipodi:arg1="0.52359878"
       sodipodi:arg2="1.1519173"
       inkscape:flatsided="false"
       inkscape:rounded="0"
       inkscape:randomized="0"
       d="m 252.81469,23.564937 -2.89068,-0.188568 -1.79411,2.274372 -0.71393,-2.807473 -2.71747,-1.00348 2.44945,-1.546544 0.11462,-2.894557 2.22778,1.851655 2.78831,-0.785454 -1.07261,2.69093 z"
       inkscape:transform-center-x="2.0273893e-06"
       inkscape:transform-center-y="-1.0905655" />
    <path
       sodipodi:type="star"
       style="fill:#ffffff;fill-opacity:1;stroke:none;stroke-width:0.422841;stroke-miterlimit:4;stroke-dasharray:none;stroke-opacity:1"
       id="path1024-2"
       sodipodi:sides="5"
       sodipodi:cx="418.97099"
       sodipodi:cy="5.8747657"
       sodipodi:r1="4.3622584"
       sodipodi:r2="2.1811292"
       sodipodi:arg1="0.52359878"
       sodipodi:arg2="1.1519173"
       inkscape:flatsided="false"
       inkscape:rounded="0"
       inkscape:randomized="0"
       d="m 422.7488,8.0558951 -2.89068,-0.1885685 -1.79411,2.2743714 -0.71393,-2.8074718 -2.71746,-1.0034802 2.44944,-1.5465447 0.11463,-2.8945568 2.22777,1.8516551 2.78831,-0.7854543 -1.07261,2.6909305 z"
       inkscape:transform-center-x="2.0273893e-06"
       inkscape:transform-center-y="-1.0905655" />
    <path
       sodipodi:type="star"
       style="fill:#ffffff;fill-opacity:1;stroke:none;stroke-width:0.422841;stroke-miterlimit:4;stroke-dasharray:none;stroke-opacity:1"
       id="path1024-6"
       sodipodi:sides="5"
       sodipodi:cx="507.60189"
       sodipodi:cy="9.4841686"
       sodipodi:r1="4.3622584"
       sodipodi:r2="2.1811292"
       sodipodi:arg1="0.52359878"
       sodipodi:arg2="1.1519173"
       inkscape:flatsided="false"
       inkscape:rounded="0"
       inkscape:randomized="0"
       d="m 511.37972,11.665298 -2.89068,-0.188568 -1.79411,2.274372 -0.71393,-2.807473 -2.71746,-1.0034798 2.44944,-1.5465448 0.11463,-2.8945568 2.22777,1.8516551 2.78831,-0.7854543 -1.07261,2.6909305 z"
       inkscape:transform-center-x="2.0273893e-06"
       inkscape:transform-center-y="-1.0905655" />
    <path
       sodipodi:type="star"
       style="fill:#ffffff;fill-opacity:1;stroke:none;stroke-width:0.422841;stroke-miterlimit:4;stroke-dasharray:none;stroke-opacity:1"
       id="path1024-21"
       sodipodi:sides="5"
       sodipodi:cx="513.61756"
       sodipodi:cy="31.54163"
       sodipodi:r1="4.3622584"
       sodipodi:r2="2.1811292"
       sodipodi:arg1="0.52359878"
       sodipodi:arg2="1.1519173"
       inkscape:flatsided="false"
       inkscape:rounded="0"
       inkscape:randomized="0"
       d="m 517.39538,33.722759 -2.89068,-0.188569 -1.79411,2.274372 -0.71393,-2.807472 -2.71747,-1.00348 2.44945,-1.546545 0.11462,-2.894557 2.22778,1.851655 2.7883,-0.785454 -1.07261,2.690931 z"
       inkscape:transform-center-x="2.0273893e-06"
       inkscape:transform-center-y="-1.0905655" />
    <path
       sodipodi:type="star"
       style="fill:#ffffff;fill-opacity:1;stroke:none;stroke-width:0.422841;stroke-miterlimit:4;stroke-dasharray:none;stroke-opacity:1"
       id="path1024-33"
       sodipodi:sides="5"
       sodipodi:cx="491.96114"
       sodipodi:cy="27.932227"
       sodipodi:r1="4.3622584"
       sodipodi:r2="2.1811292"
       sodipodi:arg1="0.52359878"
       sodipodi:arg2="1.1519173"
       inkscape:flatsided="false"
       inkscape:rounded="0"
       inkscape:randomized="0"
       d="m 495.73898,30.113355 -2.89068,-0.188568 -1.79411,2.274372 -0.71393,-2.807472 -2.71747,-1.003481 2.44945,-1.546544 0.11462,-2.894557 2.22777,1.851655 2.78831,-0.785454 -1.07261,2.69093 z"
       inkscape:transform-center-x="2.0273893e-06"
       inkscape:transform-center-y="-1.0905655" />
    <path
       sodipodi:type="star"
       style="fill:#ffffff;fill-opacity:1;stroke:none;stroke-width:0.422841;stroke-miterlimit:4;stroke-dasharray:none;stroke-opacity:1"
       id="path1024-8"
       sodipodi:sides="5"
       sodipodi:cx="268.57921"
       sodipodi:cy="5.473721"
       sodipodi:r1="4.3622584"
       sodipodi:r2="2.1811292"
       sodipodi:arg1="0.52359878"
       sodipodi:arg2="1.1519173"
       inkscape:flatsided="false"
       inkscape:rounded="0"
       inkscape:randomized="0"
       d="m 272.35705,7.6548503 -2.89068,-0.1885686 -1.79411,2.2743719 -0.71393,-2.8074722 -2.71747,-1.0034802 2.44945,-1.5465448 0.11462,-2.8945568 2.22778,1.8516551 2.7883,-0.7854543 -1.07261,2.6909305 z"
       inkscape:transform-center-x="2.0273893e-06"
       inkscape:transform-center-y="-1.0905655" />
  </g>
</svg>
